<svg width="64" height="64" viewBox="0 0 64 64" fill="none" xmlns="http://www.w3.org/2000/svg">
<path d="M32 0C14.325 0 0 14.325 0 32C0 49.675 14.325 64 32 64C49.675 64 64 49.675 64 32C64 14.325 49.675 0 32 0ZM32 10C34.7612 10 37 12.2388 37 15C37 17.7612 34.7625 20 32 20C29.2375 20 27 17.7625 27 15C27 12.2375 29.2375 10 32 10ZM46.825 26.8875L39.4125 29C38.95 29.1375 38.475 29.2 38 29.3V37.09L41.83 48.0075C42.3789 49.57 41.5565 51.2812 39.9938 51.8312C39.6625 51.95 39.325 52 39 52C37.7617 52 36.6012 51.2265 36.17 49.9925L32.9388 41.1613C32.6185 40.286 31.3813 40.286 31.06 41.1613L27.8288 49.9925C27.4 51.225 26.2375 52 25 52C24.6699 52 24.336 51.9453 24.0059 51.832C22.4434 51.2812 21.6209 49.5708 22.1696 48.0083L26 37.0875V29.3C25.525 29.2 25.05 29.1375 24.5875 29L17.175 26.8875C15.5875 26.425 14.6625 24.775 15.1125 23.175C15.5625 21.575 17.2375 20.65 18.825 21.1125L26.2313 23.23C30.0025 24.3079 34 24.3079 37.77 23.23L45.1763 21.1125C46.7638 20.6399 48.4287 21.5774 48.885 23.1712C49.3375 24.775 48.4125 26.425 46.825 26.8875Z" fill="url(#paint0_linear_509_13)"/>
<defs>
<linearGradient id="paint0_linear_509_13" x1="0" y1="32" x2="64" y2="32" gradientUnits="userSpaceOnUse">
<stop stop-color="#000024"/>
<stop offset="1" stop-color="#000048"/>
</linearGradient>
</defs>
</svg>
