<svg width="16" height="17" viewBox="0 0 16 17" fill="none" xmlns="http://www.w3.org/2000/svg">
<path d="M16 5.66866C16 9.66553 13.8109 13.0218 10.5219 14.1093C9.89562 14.3573 9.21468 14.4987 8.50031 14.4987C6.47218 14.4987 4.58781 13.3577 3.63468 11.5465C1.94312 13.1068 1.4875 14.8902 1.47968 14.9246C1.3975 15.2687 1.08968 15.4999 0.750621 15.4999C0.692996 15.4999 0.634152 15.4931 0.575559 15.4794C0.172746 15.3826 -0.0756911 14.9769 0.0208714 14.5744C0.320809 13.34 2.84806 7.4994 10.499 7.4994C10.775 7.49991 11 7.27491 11 6.99991C11 6.72491 10.775 6.49991 10.5 6.49991C7.14374 6.49991 4.71875 7.58116 3.00906 8.86241C3.0151 8.52429 3.04787 8.17991 3.11953 7.8296C3.54046 5.77304 5.18328 4.11085 7.22578 3.63585C8.11109 3.43079 8.96578 3.44794 9.75484 3.63568C11.5048 4.05193 13.4486 3.40406 14.4205 1.72193C14.5975 1.41481 15.0461 1.42456 15.1911 1.74781C15.7094 2.89866 16 4.30929 16 5.66866Z" fill="#000024"/>
</svg>
