<svg width="64" height="65" viewBox="0 0 64 65" fill="none" xmlns="http://www.w3.org/2000/svg">
<path d="M64 21.175C64 37.1625 55.2437 50.5875 42.0875 54.9375C39.5825 55.9297 36.8587 56.495 34.0012 56.495C25.8887 56.495 18.3512 51.9312 14.5387 44.6862C7.7725 50.9275 5.95 58.0612 5.91875 58.1987C5.59 59.575 4.35875 60.5 3.0025 60.5C2.772 60.5 2.53663 60.4726 2.30225 60.418C0.691001 60.0307 -0.302749 58.408 0.0835008 56.798C1.28325 51.8605 11.3922 28.498 41.996 28.498C43.1 28.5 44 27.6 44 26.5C44 25.4 43.1 24.5 42 24.5C28.575 24.5 18.875 28.825 12.0362 33.95C12.0604 32.5975 12.1915 31.22 12.4781 29.8187C14.1619 21.5925 20.7331 14.9437 28.9031 13.0437C32.4444 12.2235 35.8631 12.2921 39.0194 13.0431C46.0194 14.7081 53.7944 12.1166 57.6819 5.38807C58.3899 4.15957 60.1844 4.19857 60.7644 5.4916C62.8375 10.095 64 15.7375 64 21.175Z" fill="url(#paint0_linear_502_60)"/>
<defs>
<linearGradient id="paint0_linear_502_60" x1="0.000198364" y1="32.4967" x2="64" y2="32.4967" gradientUnits="userSpaceOnUse">
<stop stop-color="#000024"/>
<stop offset="1" stop-color="#000048"/>
</linearGradient>
</defs>
</svg>
