<svg width="390" height="847" viewBox="0 0 390 847" fill="none" xmlns="http://www.w3.org/2000/svg">
<path fill-rule="evenodd" clip-rule="evenodd" d="M216.75 44.0759C216.75 58.4119 207.532 70.0331 196.161 70.0331C184.791 70.0331 175.573 58.4119 175.573 44.0759C175.573 29.7398 184.791 18.1187 196.161 18.1187C207.532 18.1187 216.75 29.7398 216.75 44.0759Z" fill="#260200"/>
<path d="M168.029 146.906L167.167 117.092C167.167 117.092 203.314 119.977 211.047 115.951C211.047 115.951 220.498 67.1493 209.226 40.1243L208.998 39.0719L132.717 30.1293L128.44 74.0002C125.871 66.4041 104.664 57.7907 99.1207 68.6683C87.1075 92.2384 130.061 108.109 130.061 108.109L125.699 147.264" fill="#F08B8B"/>
<path opacity="0.398926" fill-rule="evenodd" clip-rule="evenodd" d="M167.167 117.092L142.792 111.854L167.05 128.277L167.167 117.092Z" fill="black"/>
<path fill-rule="evenodd" clip-rule="evenodd" d="M186.652 73.4426L195.075 94.0809L184.98 94.2098L186.652 73.4426Z" fill="#405FD3"/>
<path fill-rule="evenodd" clip-rule="evenodd" d="M177.67 74.2372C178.172 77.0165 176.33 79.6769 173.557 80.179C170.784 80.682 168.129 78.8361 167.628 76.0577C167.126 73.2784 168.967 70.618 171.741 70.115C174.514 69.6129 177.168 71.4579 177.67 74.2372Z" fill="#000048"/>
<path fill-rule="evenodd" clip-rule="evenodd" d="M205.974 74.2372C206.476 77.0165 204.634 79.6769 201.861 80.179C199.088 80.682 196.433 78.8361 195.932 76.0577C195.43 73.2784 197.271 70.618 200.045 70.115C202.818 69.6129 205.472 71.4579 205.974 74.2372Z" fill="#000048"/>
<path d="M134.105 81.4881C126.872 69.082 116.408 65.2985 111.711 64.1889C109.837 58.7623 108.409 52.4686 107.406 45.7751C104.715 27.8607 117.711 11.5163 128.209 6.82295C138.835 2.07333 157.157 -4.50858 183.975 4.42589C202.006 10.4367 213.53 -3.95381 224.14 2.19227C242.27 12.6975 225.407 58.6901 179.435 47.0063C146.551 38.6484 145.706 40.7449 145.424 46.8202C144.513 66.4576 141.457 78.0102 134.105 81.4881Z" fill="#370300"/>
<path fill-rule="evenodd" clip-rule="evenodd" d="M172.63 94.9769C172.63 94.9769 175.871 100.879 182.875 100.739L172.63 94.9769Z" fill="white"/>
<path d="M172.63 94.9769C172.63 94.9769 175.871 100.879 182.875 100.739" stroke="#202031" stroke-width="4"/>
<path fill-rule="evenodd" clip-rule="evenodd" d="M184.206 74.4841C184.206 80.9452 178.979 86.1824 172.532 86.1824C166.085 86.1824 160.858 80.9452 160.858 74.4841C160.858 68.0229 166.085 62.7848 172.532 62.7848C178.979 62.7848 184.206 68.0229 184.206 74.4841Z" stroke="#202031" stroke-width="4"/>
<path fill-rule="evenodd" clip-rule="evenodd" d="M213.6 74.4841C213.6 80.9452 208.373 86.1824 201.927 86.1824C195.479 86.1824 190.252 80.9452 190.252 74.4841C190.252 68.0229 195.479 62.7848 201.927 62.7848C208.373 62.7848 213.6 68.0229 213.6 74.4841Z" stroke="#202031" stroke-width="4"/>
<path d="M189.302 75.0264H184.254" stroke="#202031" stroke-width="4"/>
<path d="M160.858 74.4841H132.021" stroke="#202031" stroke-width="4"/>
<path fill-rule="evenodd" clip-rule="evenodd" d="M198.048 816.967L198.331 792.516L166.828 776.637L162.256 846.534H271.402C252.831 825.601 198.048 816.967 198.048 816.967ZM58.2369 817.92L58.5212 790.457L37.9827 807.192L21.4556 816.401L16.001 846.535H90.7036C81.3112 820.934 58.2369 817.92 58.2369 817.92Z" fill="#9999FF"/>
<path fill-rule="evenodd" clip-rule="evenodd" d="M58.5213 790.458L27.0182 780.983L21.4547 816.4L58.2371 817.92L58.5213 790.458ZM198.331 792.517L166.828 783.043L164.288 815.448L198.048 816.966L198.331 792.517Z" fill="#F08B8B"/>
<path d="M202.846 784.5L202.12 807.192H160.565L161.294 784.432C156.638 782.563 153.312 778.069 153.198 772.758L146.51 432.867L74.2351 776.016C73.2168 780.843 69.639 784.592 65.0955 785.974L62.3784 807.192H18.808L22.5578 783.766C18.9296 780.952 16.8269 776.323 17.5503 771.379L84.0901 316.577L144.221 316.577L144.218 316.404H217.048L212.682 772.123C212.622 778.115 208.456 783.129 202.846 784.5Z" fill="#000024"/>
<path opacity="0.197824" fill-rule="evenodd" clip-rule="evenodd" d="M146.14 438.253L158.892 381.682L149.298 553.189L146.14 438.253Z" fill="black"/>
<path d="M99.6476 317.006L106.627 318.145L30.5159 781.619L23.516 780.45L99.6476 317.006Z" fill="#EFEFEF"/>
<path fill-rule="evenodd" clip-rule="evenodd" d="M317.083 160.682L316.583 152.053C316.583 152.053 316.593 146.048 317.373 139.566C317.568 137.94 317.998 136.24 318.457 134.423C319.828 129.001 321.459 122.549 317.893 113.977C313.133 102.545 324.513 110.438 327.033 115.876C328.006 117.978 328.29 121.155 328.571 124.306C328.897 127.951 329.219 131.561 330.603 133.432C332.783 132.249 334.233 130.709 334.233 130.709L358.763 99.0752C359.553 98.0115 361.013 97.6933 362.183 98.3196L363.503 99.0354C364.893 99.791 365.333 101.561 364.443 102.853C362.741 105.336 359.771 109.524 356.666 113.902L356.666 113.902L356.664 113.905C351.03 121.849 344.955 130.415 345.213 130.55L345.863 131.335L374.673 101.133C375.573 100.129 377.083 99.95 378.193 100.716L379.923 101.908C381.183 102.773 381.453 104.503 380.513 105.696C377.441 109.64 369.836 118.182 363.505 125.293L363.504 125.293C358.027 131.446 353.503 136.528 353.693 136.634L354.553 137.459L381.373 113.908C382.323 112.854 383.943 112.735 385.043 113.619L386.353 114.683C387.503 115.608 387.673 117.288 386.733 118.421L361.403 142.101L362.133 143.245L384.123 127.885C385.133 126.991 386.653 126.991 387.673 127.875L388.283 128.422C389.363 129.376 389.483 131.017 388.543 132.12C387.046 133.881 384.083 136.194 380.551 138.952C376.487 142.126 371.668 145.888 367.463 150.074C365.147 152.381 363.279 154.641 361.386 156.932C358.295 160.673 355.138 164.494 349.853 168.724C346.699 171.259 343.844 172.733 341.127 174.135C340.743 174.334 340.362 174.531 339.983 174.729L317.083 160.682ZM119.373 140.884C119.373 140.884 136.32 140.851 148.551 140.81C160.781 140.768 176.161 145.909 176.161 145.909C176.161 145.909 184.164 163.879 156.364 162.251C128.564 160.622 119.373 140.884 119.373 140.884ZM26.6803 213.602C26.6803 213.602 -0.448694 254.304 0.166306 276.939C0.892306 303.628 86.2373 369.205 86.2373 369.205L108.355 351.197L54.6273 276.328L74.1663 234.727L26.6803 213.602Z" fill="#F08B8B"/>
<path d="M101.929 318.563L115.141 336.282L75.3455 370.949C75.3455 370.949 2.31853 317.455 0.063528 275.512C-1.37247 248.798 22.0125 210.664 22.0125 210.664C22.0125 210.664 51.3645 163.779 85.2945 147.957C92.2575 144.71 109.139 142.001 119.373 140.884C122.51 140.541 120.635 141.763 121.712 143.83C122.837 145.99 126.261 149.19 128.631 151.583C133.562 156.562 143.28 160.332 148.5 161.104C152.478 161.692 160.167 162.604 163.865 162.108C167.563 161.612 171.584 159.943 172.659 158.952C173.734 157.96 175.332 156.72 176.161 154.809C176.991 152.899 176.948 153.446 176.948 151.683C176.948 149.921 176.857 150.182 176.685 149.343C176.512 148.504 176.512 148 176.41 147.566C175.96 145.648 176.161 145.909 176.161 145.909C196.191 151.955 206.337 154.192 213.633 162.988L269.397 202.099L307.551 152.342L356.781 185.377C356.781 185.377 313.192 266.539 281.602 275.512C256.155 282.74 230.376 260.261 221.312 251.245L232.082 305.882C233.808 315.315 225.543 318.885 218.179 318.551L101.929 318.563Z" fill="#4D4DFF"/>
<path opacity="0.201242" fill-rule="evenodd" clip-rule="evenodd" d="M221.143 251.278L214.478 224.954L232.474 260.929L221.143 251.278Z" fill="black"/>
<path opacity="0.200591" d="M96.9867 312.218L65.9097 268.17L103.449 211.275" stroke="black" stroke-width="5"/>
</svg>
