<?xml version="1.0" encoding="utf-8"?>
<!-- Generator: Adobe Illustrator 26.2.1, SVG Export Plug-In . SVG Version: 6.00 Build 0)  -->
<svg version="1.1" id="Logos" xmlns="http://www.w3.org/2000/svg" xmlns:xlink="http://www.w3.org/1999/xlink" x="0px" y="0px"
	 viewBox="0 0 224 276" style="enable-background:new 0 0 224 276;" xml:space="preserve">
<style type="text/css">
	.st0{fill:#FFFFFF;}
</style>
<g id="Tête">
	<g>
		<path class="st0" d="M60,88c-11.5,0-18.6-4.1-20.4-5.3c-3.7-2.5-4.7-7.4-2.2-11.1c2.5-3.7,7.4-4.7,11.1-2.2
			C48.6,69.5,52.6,72,60,72c3,0,8.6-0.7,11.6-2.7c3.7-2.5,8.6-1.5,11.1,2.2c2.5,3.7,1.5,8.6-2.2,11.1C73,87.6,62.9,88,60,88z"/>
	</g>
	<g>
		<path class="st0" d="M112,76c-4.4,0-8-3.6-8-8V56c0-4.4,3.6-8,8-8c4.4,0,8,3.6,8,8v12C120,72.4,116.4,76,112,76z"/>
	</g>
	<g>
		<path class="st0" d="M164,88c-2.9,0-13-0.4-20.4-5.3c-3.7-2.5-4.7-7.4-2.2-11.1c2.4-3.7,7.4-4.7,11.1-2.2
			c2.9,1.9,8.5,2.7,11.6,2.7c7.4,0,11.4-2.5,11.6-2.7c3.7-2.4,8.7-1.4,11.1,2.3s1.5,8.6-2.2,11C182.6,83.9,175.5,88,164,88z"/>
	</g>
	<g>
		<path class="st0" d="M72,56c-4.4,0-8-3.6-8-8v-8c0-4.4,3.6-8,8-8s8,3.6,8,8v8C80,52.4,76.4,56,72,56z"/>
	</g>
	<g>
		<path class="st0" d="M48,56c-4.4,0-8-3.6-8-8v-8c0-4.4,3.6-8,8-8s8,3.6,8,8v8C56,52.4,52.4,56,48,56z"/>
	</g>
	<g>
		<path class="st0" d="M26.9,64c-1.4,0-2.7-0.3-4-1.1l-6.9-4c-3.8-2.2-5.1-7.1-2.9-10.9c2.2-3.8,7.1-5.1,10.9-2.9l6.9,4
			c3.8,2.2,5.1,7.1,2.9,10.9C32.4,62.6,29.7,64,26.9,64z"/>
	</g>
	<g>
		<path class="st0" d="M152,56c-4.4,0-8-3.6-8-8v-8c0-4.4,3.6-8,8-8s8,3.6,8,8v8C160,52.4,156.4,56,152,56z"/>
	</g>
	<g>
		<path class="st0" d="M176,56c-4.4,0-8-3.6-8-8v-8c0-4.4,3.6-8,8-8s8,3.6,8,8v8C184,52.4,180.4,56,176,56z"/>
	</g>
	<g>
		<path class="st0" d="M197.1,64c-2.8,0-5.5-1.4-6.9-4c-2.2-3.8-0.9-8.7,2.9-10.9l6.9-4c3.8-2.2,8.7-0.9,10.9,2.9
			c2.2,3.8,0.9,8.7-2.9,10.9l-6.9,4C199.8,63.7,198.4,64,197.1,64z"/>
	</g>
	<g>
		<path class="st0" d="M8,36c-3.3,0-6.5-2.1-7.6-5.5c-1.4-4.2,0.9-8.7,5.1-10.1l60-20c2.7-0.9,5.7-0.3,7.8,1.6
			c0.7,0.6,16.3,14,38.7,14c4.4,0,8,3.6,8,8s-3.6,8-8,8c-21.8,0-38.4-9.9-45.5-15.1L10.5,35.6C9.7,35.9,8.8,36,8,36z"/>
	</g>
	<g>
		<path class="st0" d="M216,36c-0.8,0-1.7-0.1-2.5-0.4l-55.9-18.6C150.4,22.1,133.8,32,112,32c-4.4,0-8-3.6-8-8s3.6-8,8-8
			c22.4,0,38.1-13.5,38.7-14c2.1-1.9,5.1-2.5,7.8-1.6l60,20c4.2,1.4,6.5,5.9,5.1,10.1C222.5,33.9,219.4,36,216,36z"/>
	</g>
	<g>
		<path class="st0" d="M112,80c-4.4,0-8-3.6-8-8V52c0-4.4,3.6-8,8-8c4.4,0,8,3.6,8,8v20C120,76.4,116.4,80,112,80z"/>
	</g>
	<g>
		<path class="st0" d="M36,108c-1.5,0-3.1-0.4-4.4-1.3c-3.7-2.5-6.5-4-9.5-5.7c-3.1-1.7-6.3-3.5-10.5-6.3c-3.7-2.4-4.7-7.4-2.2-11.1
			c2.4-3.7,7.4-4.7,11.1-2.2c3.7,2.5,6.5,4,9.5,5.7c3.1,1.7,6.3,3.5,10.5,6.3c3.7,2.4,4.7,7.4,2.2,11.1C41.1,106.7,38.6,108,36,108z
			"/>
	</g>
	<g>
		<path class="st0" d="M112,200c-1.1,0-2.3-0.2-3.4-0.7c-8.8-4.1-16.7-8.2-24.3-12.2c-7.5-3.9-15.2-7.9-23.7-11.8
			c-3.8-1.7-5.6-6.1-4.2-10c0.6-1.9,2.6-16.1-4.1-33.9c-3.9-10.1-11.2-18.8-20.5-24.5c-3.7-2.2-5-7-2.8-10.8
			c2.1-3.8,6.9-5.2,10.7-3.1c4.4,2.3,16.1,7.3,30.1,3.4c7.9-2.3,14.8-6.9,20-13.3c2.3-2.9,6.4-3.8,9.7-2.2c3.3,1.6,5.1,5.3,4.3,8.9
			l-6.6,29.9l14.8,7.4l14.8-7.4l-6.6-29.9c-0.8-3.6,1-7.3,4.3-8.9c3.3-1.6,7.4-0.7,9.7,2.2c5.2,6.4,12.1,11,20,13.4
			c13.9,4,25.6-1.1,30-3.4c3.8-2,8.6-0.6,10.7,3.1c2.1,3.8,0.9,8.6-2.8,10.8c-9.3,5.6-16.6,14.3-20.5,24.5
			c-6.7,17.8-4.8,32-4.1,33.9c1.4,3.9-0.4,8.3-4.2,10c-8.5,3.9-16.2,7.9-23.7,11.8c-7.6,4-15.5,8.1-24.3,12.2
			C114.3,199.8,113.1,200,112,200z M72.9,163.4c6.6,3.2,12.8,6.4,18.8,9.5c6.5,3.4,13.1,6.8,20.3,10.3c7.2-3.4,13.8-6.9,20.3-10.3
			c6-3.1,12.1-6.3,18.8-9.5c-0.8-8.6-0.1-22.5,5.6-37.7c1.6-4.2,3.6-8.2,6-11.9c-4.1-0.2-8.4-0.8-12.9-2.1c-3.2-0.9-6.2-2.1-9.1-3.5
			l3.1,14.1c0.8,3.6-0.9,7.2-4.2,8.9l-24,12c-2.3,1.1-4.9,1.1-7.2,0l-24-12c-3.3-1.6-5-5.3-4.2-8.9l3.1-14.1
			c-2.9,1.4-5.9,2.6-9.1,3.5c-4.5,1.3-8.9,1.9-13,2.1c2.4,3.7,4.4,7.7,6,11.9C73.1,140.9,73.8,154.7,72.9,163.4z"/>
	</g>
	<g>
		<path class="st0" d="M188,108c-2.6,0-5.1-1.3-6.7-3.6c-2.5-3.7-1.5-8.6,2.2-11.1c4.3-2.8,7.5-4.6,10.5-6.3
			c2.9-1.6,5.7-3.2,9.5-5.7c3.7-2.5,8.6-1.5,11.1,2.2c2.5,3.7,1.5,8.6-2.2,11.1c-4.3,2.8-7.5,4.6-10.5,6.3c-2.9,1.6-5.7,3.2-9.5,5.7
			C191.1,107.6,189.5,108,188,108z"/>
	</g>
	<g>
		<path class="st0" d="M208,208c-4.4,0-8-3.6-8-8v-88c0-4.4,3.6-8,8-8s8,3.6,8,8v88C216,204.4,212.4,208,208,208z"/>
	</g>
	<g>
		<path class="st0" d="M184,240c-4.4,0-8-3.6-8-8v-96c0-4.4,3.6-8,8-8s8,3.6,8,8v96C192,236.4,188.4,240,184,240z"/>
	</g>
	<g>
		<path class="st0" d="M160,260c-4.4,0-8-3.6-8-8v-60c0-4.4,3.6-8,8-8s8,3.6,8,8v60C168,256.4,164.4,260,160,260z"/>
	</g>
	<g>
		<path class="st0" d="M136,272c-4.4,0-8-3.6-8-8v-56c0-4.4,3.6-8,8-8s8,3.6,8,8v56C144,268.4,140.4,272,136,272z"/>
	</g>
	<g>
		<path class="st0" d="M112,276c-4.4,0-8-3.6-8-8v-52c0-4.4,3.6-8,8-8c4.4,0,8,3.6,8,8v52C120,272.4,116.4,276,112,276z"/>
	</g>
	<g>
		<path class="st0" d="M88,272c-4.4,0-8-3.6-8-8v-56c0-4.4,3.6-8,8-8s8,3.6,8,8v56C96,268.4,92.4,272,88,272z"/>
	</g>
	<g>
		<path class="st0" d="M64,260c-4.4,0-8-3.6-8-8v-60c0-4.4,3.6-8,8-8s8,3.6,8,8v60C72,256.4,68.4,260,64,260z"/>
	</g>
	<g>
		<path class="st0" d="M40,240c-4.4,0-8-3.6-8-8v-96c0-4.4,3.6-8,8-8s8,3.6,8,8v96C48,236.4,44.4,240,40,240z"/>
	</g>
	<g>
		<path class="st0" d="M16,208c-4.4,0-8-3.6-8-8v-88c0-4.4,3.6-8,8-8s8,3.6,8,8v88C24,204.4,20.4,208,16,208z"/>
	</g>
	<g>
		<path class="st0" d="M112,168c-4.6,0-9-0.2-12.3-0.6C96.8,167,88,165.9,88,158s8.8-9,11.7-9.4c3.3-0.4,7.7-0.6,12.3-0.6
			s9,0.2,12.3,0.6c2.9,0.4,11.7,1.5,11.7,9.4s-8.8,9-11.7,9.4C121,167.8,116.6,168,112,168z M124.5,164.9L124.5,164.9L124.5,164.9z"
			/>
	</g>
</g>
</svg>
