<svg xmlns="http://www.w3.org/2000/svg" width="1920" height="512" fill="none"><g clip-path="url(#a)"><path fill="#A5D926" fill-rule="evenodd" d="M415.5 98.5a744.53 744.53 0 0 0-14 2.5c-5.021 2.179-10.021 4.346-15 6.5a1353.028 1353.028 0 0 1-13-32.5c2.403-13.404 10.403-19.737 24-19 9.133 1.297 14.299 6.464 15.5 15.5a925.035 925.035 0 0 1 2.5 27Z" clip-rule="evenodd" opacity=".989"/><path fill="#A5D926" fill-rule="evenodd" d="M448.5 106.5a123.658 123.658 0 0 1-14-5.5 714.806 714.806 0 0 0-16-2.5 458.272 458.272 0 0 0 2.5-24c1.937-14.24 10.104-20.073 24.5-17.5 11.018 3.54 15.851 11.04 14.5 22.5a274.992 274.992 0 0 0-11.5 27Z" clip-rule="evenodd" opacity=".986"/><path fill="#378618" fill-rule="evenodd" d="M227.5 106.5a215.171 215.171 0 0 0-22.5-4c-7.227.078-14.06 1.745-20.5 5-6.556-9.894-15.222-17.227-26-22 3.556-8.718 9.889-14.552 19-17.5 19.231-5.15 34.398.35 45.5 16.5 3.229 6.976 4.729 14.309 4.5 22Z" clip-rule="evenodd" opacity=".987"/><path fill="#A5D926" fill-rule="evenodd" d="M337.5 114.5c-4.059 2.733-7.059 6.399-9 11a1295.505 1295.505 0 0 1 11 32.5c-.081 3.669-1.915 5.836-5.5 6.5a213.561 213.561 0 0 1-11.5-7.5 202.712 202.712 0 0 0-18.5-15.5 727.123 727.123 0 0 0-28.5 10.5c-8.726 2.036-11.56-1.13-8.5-9.5a514.864 514.864 0 0 0 20-23c.941-2.489.441-4.489-1.5-6a526.307 526.307 0 0 1-10-29c2.136-6.545 6.136-8.045 12-4.5l24.5 20.5a969.048 969.048 0 0 1 33-12c4.771 1.219 6.771 4.219 6 9a338.372 338.372 0 0 1-13.5 17Z" clip-rule="evenodd" opacity=".992"/><path fill="#A5D926" fill-rule="evenodd" d="M469.5 130.5a115.86 115.86 0 0 0-7.5-12 609.444 609.444 0 0 0-11.5-11c4.823-6.971 9.657-13.971 14.5-21 10.89-10.787 21.556-10.454 32 1 4.25 7.105 4.583 14.438 1 22a288.015 288.015 0 0 1-28.5 21Z" clip-rule="evenodd" opacity=".984"/><path fill="#378618" fill-rule="evenodd" d="M110.5 96.5c-8.197 9.066-12.53 19.732-13 32-17.268-1.58-31.934 3.754-44 16-8.783-13.169-10.283-27.169-4.5-42C61.632 84.128 78.466 78.96 99.5 87c4.449 2.284 8.116 5.45 11 9.5Z" clip-rule="evenodd" opacity=".987"/><path fill="#A5D926" fill-rule="evenodd" d="M158.5 85.5c10.778 4.773 19.444 12.106 26 22 6.44-3.255 13.273-4.922 20.5-5a215.171 215.171 0 0 1 22.5 4c13.28 5.947 22.947 15.613 29 29-4.577 8.503-8.077 17.503-10.5 27-.5 6.325-.666 12.658-.5 19h-80a1091.462 1091.462 0 0 0-5-19.5 114.32 114.32 0 0 0 21-13c4.545-3.911 6.712-8.745 6.5-14.5-2.21-2.79-5.044-3.623-8.5-2.5-5.362 8.183-12.695 14.016-22 17.5a400.907 400.907 0 0 1-5.5-19c-2.21-2.79-5.044-3.623-8.5-2.5-1.857 1.182-2.857 2.849-3 5a305.969 305.969 0 0 1 5 20.5 290.34 290.34 0 0 0-16 1c-3.836.133-7.502-.533-11-2-7.85 2.234-8.85 6.067-3 11.5a54.628 54.628 0 0 1 7 2c8.762.64 17.429.307 26-1a147.364 147.364 0 0 1 4 16.5h-115c1.276-14.205 6.609-26.539 16-37 12.066-12.246 26.732-17.58 44-16 .47-12.268 4.803-22.934 13-32 13.957-12.061 29.957-15.728 48-11Z" clip-rule="evenodd" opacity=".998"/><path fill="#FF9417" fill-rule="evenodd" d="M415.5 98.5h3a714.797 714.797 0 0 1 16 2.5 123.658 123.658 0 0 0 14 5.5c.342.838 1.008 1.172 2 1 3.78 3.52 7.613 7.186 11.5 11a115.86 115.86 0 0 1 7.5 12c3.8 10.409 4.633 21.075 2.5 32a206.97 206.97 0 0 1-5.5 19h-103a301.387 301.387 0 0 1 2-40c3.449-13.573 10.449-24.906 21-34 4.979-2.154 9.979-4.321 15-6.5a744.53 744.53 0 0 1 14-2.5Z" clip-rule="evenodd" opacity=".995"/><path fill="#E20909" fill-rule="evenodd" d="M285.5 113.5c1.941 1.511 2.441 3.511 1.5 6a514.864 514.864 0 0 1-20 23c-3.06 8.37-.226 11.536 8.5 9.5a727.123 727.123 0 0 1 28.5-10.5 202.712 202.712 0 0 1 18.5 15.5 213.561 213.561 0 0 0 11.5 7.5c3.585-.664 5.419-2.831 5.5-6.5a1295.505 1295.505 0 0 0-11-32.5c1.941-4.601 4.941-8.267 9-11a134.348 134.348 0 0 1 28 27 301.387 301.387 0 0 0-2 40h-118c-.166-6.342 0-12.675.5-19 2.423-9.497 5.923-18.497 10.5-27 7.961-9.634 17.628-16.967 29-22Z" clip-rule="evenodd" opacity=".994"/><path fill="#378618" fill-rule="evenodd" d="M165.5 181.5h-13a147.364 147.364 0 0 0-4-16.5 115.92 115.92 0 0 1-26 1 54.628 54.628 0 0 0-7-2c-5.85-5.433-4.85-9.266 3-11.5 3.498 1.467 7.164 2.133 11 2a290.34 290.34 0 0 1 16-1 305.969 305.969 0 0 0-5-20.5c.143-2.151 1.143-3.818 3-5 3.456-1.123 6.29-.29 8.5 2.5a400.907 400.907 0 0 0 5.5 19c9.305-3.484 16.638-9.317 22-17.5 3.456-1.123 6.29-.29 8.5 2.5.212 5.755-1.955 10.589-6.5 14.5a114.32 114.32 0 0 1-21 13 1091.462 1091.462 0 0 1 5 19.5Z" clip-rule="evenodd"/><path fill="#3B0015" fill-rule="evenodd" d="M37.5 181.5h429c11.005-.167 22.005 0 33 .5 5.85 2.019 9.85 5.852 12 11.5v21c-2.06 5.229-5.726 9.063-11 11.5a101.188 101.188 0 0 1-21 1.5 25094.773 25094.773 0 0 0-448 0 101.19 101.19 0 0 1-21-1.5c-4.855-2.357-8.521-5.857-11-10.5v-22c2.124-5.622 6.124-9.455 12-11.5 8.66-.5 17.327-.666 26-.5Z" clip-rule="evenodd" opacity=".998"/><path fill="#E3A651" fill-rule="evenodd" d="M479.5 227.5v63h-448v-63a25094.773 25094.773 0 0 1 448 0Z" clip-rule="evenodd" opacity=".996"/><path fill="#FEDDAF" fill-rule="evenodd" d="M479.5 290.5h-448v88h448v-88Z" clip-rule="evenodd"/><path fill="#E3A651" fill-rule="evenodd" d="M31.5 378.5h448c.167 12.005 0 24.005-.5 36-2.814 19.131-13.314 31.964-31.5 38.5a9305.344 9305.344 0 0 1-192 1.5c-64.044.16-128.044-.34-192-1.5-18.186-6.536-28.686-19.369-31.5-38.5a648.437 648.437 0 0 1-.5-36Z" clip-rule="evenodd" opacity=".997"/><mask id="b" width="162" height="176" x="176" y="256" maskUnits="userSpaceOnUse" style="mask-type:alpha"><path fill="#E20909" fill-rule="evenodd" d="M267.887 428.554c-6.887 3.578-14.887 3.578-21.773 0-22.007-11.435-69.709-43.059-69.709-102.347v-37.802c0-17.673 14.327-32 32-32h97.19c17.673 0 32 14.327 32 32v37.802c0 59.288-47.701 90.912-69.708 102.347Z" clip-rule="evenodd"/></mask><g mask="url(#b)"><path fill="#E20909" fill-rule="evenodd" d="M257 433.596s-80.595-30.324-80.595-107.389v-69.802h161.19v69.802c0 77.065-80.595 107.389-80.595 107.389Z" clip-rule="evenodd"/><path fill="#fff" d="M236.48 256.405v56.636h-60.075v13.155c0 10.066 1.377 19.332 3.769 27.839h56.306v69.047c11.751 7.185 20.52 10.486 20.52 10.486s8.769-3.301 20.52-10.486v-69.047h56.307c2.391-8.507 3.768-17.773 3.768-27.839v-13.155H277.52v-56.636h-41.04Z"/></g></g><path fill="#3B0015" d="M707.287 191.999c-13.443 0-24.976-2.193-34.599-6.58-9.481-4.387-16.91-10.825-22.287-19.316-5.236-8.49-8.137-19.032-8.703-31.627a771.295 771.295 0 0 1-.212-18.679c0-6.651.071-13.018.212-19.103.566-12.312 3.538-22.712 8.915-31.203 5.377-8.632 12.877-15.141 22.5-19.528 9.622-4.528 21.014-6.792 34.174-6.792 9.34 0 17.972 1.203 25.896 3.608 7.924 2.264 14.858 5.66 20.802 10.189 5.943 4.386 10.542 9.764 13.797 16.132 3.396 6.226 5.165 13.301 5.306 21.226.142 1.273-.283 2.335-1.273 3.184-.849.849-1.911 1.273-3.184 1.273h-28.656c-1.839 0-3.254-.353-4.245-1.061-.99-.849-1.839-2.335-2.547-4.457-1.981-7.5-5.236-12.595-9.764-15.283-4.387-2.83-9.835-4.246-16.344-4.246-7.783 0-13.939 2.194-18.467 6.58-4.528 4.246-7.005 11.392-7.429 21.439-.425 11.604-.425 23.49 0 35.66.424 10.047 2.901 17.264 7.429 21.651 4.528 4.245 10.684 6.368 18.467 6.368 6.509 0 12.028-1.415 16.556-4.246 4.529-2.83 7.712-7.924 9.552-15.283.566-2.122 1.344-3.537 2.335-4.245 1.132-.849 2.618-1.273 4.457-1.273h28.656c1.273 0 2.335.424 3.184 1.273.99.849 1.415 1.911 1.273 3.184-.141 7.925-1.91 15.071-5.306 21.439-3.255 6.226-7.854 11.603-13.797 16.132-5.944 4.386-12.878 7.783-20.802 10.188-7.924 2.264-16.556 3.396-25.896 3.396ZM845.289 191.999c-11.887 0-21.934-1.91-30.141-5.731-8.066-3.82-14.293-9.268-18.679-16.344-4.246-7.217-6.651-15.778-7.217-25.684a192.32 192.32 0 0 1-.213-9.551c0-3.68.071-6.864.213-9.552.566-10.047 3.113-18.609 7.641-25.684 4.528-7.075 10.826-12.523 18.891-16.344 8.208-3.82 18.043-5.731 29.505-5.731 11.604 0 21.438 1.91 29.504 5.73 8.208 3.822 14.576 9.27 19.104 16.345 4.528 7.075 7.075 15.637 7.641 25.684.142 2.688.213 5.872.213 9.552 0 3.537-.071 6.721-.213 9.551-.566 9.906-3.042 18.467-7.429 25.684-4.245 7.076-10.471 12.524-18.679 16.344-8.066 3.821-18.113 5.731-30.141 5.731Zm0-25.896c6.368 0 10.967-1.91 13.797-5.731 2.972-3.82 4.67-9.551 5.094-17.193.142-2.123.212-4.953.212-8.49 0-3.538-.07-6.368-.212-8.491-.424-7.5-2.122-13.16-5.094-16.981-2.83-3.962-7.429-5.943-13.797-5.943-6.226 0-10.825 1.981-13.797 5.943-2.972 3.821-4.599 9.481-4.882 16.981-.142 2.123-.212 4.953-.212 8.491 0 3.537.07 6.367.212 8.49.283 7.642 1.91 13.373 4.882 17.193 2.972 3.821 7.571 5.731 13.797 5.731ZM974.843 191.999c-11.886 0-21.933-1.91-30.141-5.731-8.066-3.82-14.292-9.268-18.679-16.344-4.245-7.217-6.651-15.778-7.217-25.684-.141-2.83-.212-6.014-.212-9.551 0-3.68.071-6.864.212-9.552.566-10.047 3.113-18.609 7.642-25.684 4.528-7.075 10.825-12.523 18.891-16.344 8.207-3.82 18.042-5.731 29.504-5.731 11.604 0 21.439 1.91 29.507 5.73 8.21 3.822 14.57 9.27 19.1 16.345 4.53 7.075 7.08 15.637 7.64 25.684.14 2.688.22 5.872.22 9.552 0 3.537-.08 6.721-.22 9.551-.56 9.906-3.04 18.467-7.43 25.684-4.24 7.076-10.47 12.524-18.68 16.344-8.061 3.821-18.108 5.731-30.137 5.731Zm0-25.896c6.368 0 10.967-1.91 13.797-5.731 2.972-3.82 4.67-9.551 5.095-17.193.141-2.123.212-4.953.212-8.49 0-3.538-.071-6.368-.212-8.491-.425-7.5-2.123-13.16-5.095-16.981-2.83-3.962-7.429-5.943-13.797-5.943-6.226 0-10.825 1.981-13.797 5.943-2.971 3.821-4.599 9.481-4.882 16.981-.141 2.123-.212 4.953-.212 8.491 0 3.537.071 6.367.212 8.49.283 7.642 1.911 13.373 4.882 17.193 2.972 3.821 7.571 5.731 13.797 5.731ZM1057.49 230.207c-1.56 0-2.83-.496-3.82-1.486-.99-.991-1.49-2.264-1.49-3.821V84.807c0-1.557.5-2.83 1.49-3.82.99-.991 2.26-1.486 3.82-1.486h23.98c1.42 0 2.62.495 3.61 1.485 1.13.99 1.7 2.264 1.7 3.821v7.854c3.25-4.387 7.57-7.996 12.95-10.826 5.38-2.971 12.03-4.457 19.95-4.457 7.08 0 13.3 1.132 18.68 3.396 5.38 2.123 9.98 5.307 13.8 9.552 3.82 4.245 6.79 9.41 8.91 15.495 2.27 6.085 3.54 13.089 3.82 21.014.14 2.83.21 5.448.21 7.854 0 2.405-.07 5.023-.21 7.853-.28 7.642-1.48 14.505-3.61 20.59-2.12 6.085-5.09 11.25-8.91 15.495-3.82 4.245-8.49 7.571-14.01 9.976-5.38 2.264-11.6 3.396-18.68 3.396-6.93 0-13.02-1.202-18.25-3.608-5.1-2.547-9.34-6.085-12.74-10.613V224.9c0 1.557-.49 2.83-1.49 3.821-.99.99-2.26 1.486-3.82 1.486h-25.89Zm50.73-66.651c4.81 0 8.56-.99 11.25-2.971 2.69-1.982 4.6-4.67 5.73-8.066 1.27-3.397 2.05-7.147 2.33-11.25.29-4.387.29-8.774 0-13.161-.28-4.103-1.06-7.853-2.33-11.249-1.13-3.397-3.04-6.085-5.73-8.066-2.69-1.981-6.44-2.972-11.25-2.972-4.67 0-8.42 1.061-11.25 3.184-2.83 1.981-4.88 4.599-6.16 7.854-1.27 3.254-1.98 6.792-2.12 10.613-.14 2.688-.21 5.306-.21 7.853 0 2.548.07 5.236.21 8.066.14 3.538.92 6.863 2.34 9.977 1.41 2.971 3.53 5.448 6.36 7.429 2.83 1.839 6.44 2.759 10.83 2.759ZM1237.03 191.999c-16.7 0-30-4.528-39.9-13.584-9.91-9.057-15.07-22.5-15.5-40.33v-7.429c.43-11.18 2.9-20.731 7.43-28.656 4.67-8.066 11.04-14.15 19.1-18.254 8.21-4.245 17.76-6.368 28.66-6.368 12.45 0 22.71 2.476 30.78 7.429 8.2 4.953 14.36 11.674 18.46 20.165 4.11 8.49 6.16 18.184 6.16 29.08v5.094c0 1.557-.57 2.83-1.7 3.821-.99.99-2.19 1.486-3.61 1.486h-67.92V145.938c.14 4.104.85 7.854 2.12 11.25 1.28 3.397 3.26 6.085 5.95 8.066 2.68 1.981 5.94 2.972 9.76 2.972 2.83 0 5.16-.425 7-1.274 1.99-.99 3.61-2.051 4.89-3.184 1.27-1.273 2.26-2.334 2.97-3.183 1.27-1.416 2.26-2.265 2.97-2.548.85-.424 2.12-.636 3.82-.636h26.32c1.42 0 2.55.424 3.4 1.273.99.708 1.41 1.769 1.27 3.184-.14 2.406-1.34 5.307-3.61 8.703-2.26 3.396-5.59 6.792-9.97 10.188-4.25 3.255-9.63 5.944-16.14 8.066-6.51 2.123-14.08 3.184-22.71 3.184Zm-18.04-68.56h35.87v-.425c0-4.528-.71-8.49-2.12-11.886-1.27-3.397-3.33-6.015-6.16-7.854-2.69-1.84-5.94-2.76-9.76-2.76-3.82 0-7.08.92-9.76 2.76-2.55 1.839-4.53 4.457-5.95 7.854-1.41 3.396-2.12 7.358-2.12 11.886v.425Zm5.52-59.858c-2.27 0-3.4-1.132-3.4-3.396 0-1.132.36-2.052 1.06-2.76l18.68-22.712c1.42-1.698 2.62-2.76 3.61-3.184.99-.566 2.41-.849 4.25-.849h27.8c2.69 0 4.04 1.415 4.04 4.245 0 .991-.36 1.84-1.07 2.548l-28.01 23.136c-1.14.99-2.27 1.769-3.4 2.335-1.13.424-2.69.637-4.67.637h-18.89ZM1317.43 189.877c-1.56 0-2.83-.496-3.82-1.486-1-.991-1.49-2.264-1.49-3.821V84.807c0-1.415.49-2.618 1.49-3.608.99-1.132 2.26-1.698 3.82-1.698h24.41c1.55 0 2.83.566 3.82 1.698.99.99 1.48 2.193 1.48 3.608v8.49c3.82-4.386 8.35-7.782 13.59-10.188 5.37-2.406 11.39-3.608 18.04-3.608h9.34c1.41 0 2.62.495 3.61 1.485 1.13.99 1.7 2.264 1.7 3.821v21.863c0 1.415-.57 2.689-1.7 3.821-.99.99-2.2 1.486-3.61 1.486h-20.59c-5.8 0-10.33 1.627-13.58 4.882-3.12 3.113-4.67 7.57-4.67 13.372v54.339c0 1.557-.57 2.83-1.7 3.821-.99.99-2.27 1.486-3.82 1.486h-26.32ZM1439.76 191.999c-7.65 0-14.51-1.415-20.59-4.245-5.95-2.972-10.69-6.934-14.23-11.887-3.53-4.952-5.3-10.542-5.3-16.768 0-10.047 4.1-17.972 12.31-23.774 8.21-5.943 19.1-9.976 32.69-12.099l26.53-4.033v-2.971c0-5.094-1.06-8.986-3.18-11.675-2.13-2.688-6.02-4.033-11.68-4.033-3.96 0-7.22.779-9.76 2.335-2.41 1.557-4.32 3.679-5.73 6.368-1.28 1.84-3.05 2.76-5.31 2.76h-23.77c-1.56 0-2.76-.425-3.61-1.274-.85-.991-1.2-2.123-1.06-3.396 0-2.547.92-5.448 2.76-8.703 1.98-3.396 4.95-6.722 8.91-9.976 3.96-3.255 9.06-5.944 15.28-8.066 6.23-2.123 13.73-3.184 22.5-3.184 9.2 0 17.06 1.061 23.57 3.184 6.5 2.122 11.74 5.094 15.7 8.915 4.11 3.82 7.15 8.349 9.13 13.585 1.98 5.094 2.97 10.754 2.97 16.981v64.527c0 1.557-.56 2.83-1.7 3.821-.99.99-2.19 1.486-3.61 1.486h-24.62c-1.55 0-2.83-.496-3.82-1.486-.99-.991-1.48-2.264-1.48-3.821v-7.429c-1.84 2.689-4.32 5.165-7.43 7.429-3.12 2.264-6.8 4.033-11.04 5.307-4.1 1.415-8.92 2.122-14.43 2.122Zm9.97-24.198c4.11 0 7.78-.849 11.04-2.547 3.4-1.839 6.01-4.599 7.85-8.278 1.98-3.821 2.97-8.561 2.97-14.221v-2.972l-18.04 3.184c-6.65 1.132-11.53 2.901-14.64 5.306-2.98 2.264-4.46 4.953-4.46 8.066 0 2.406.71 4.458 2.12 6.156 1.42 1.698 3.26 3.042 5.52 4.033 2.26.849 4.81 1.273 7.64 1.273ZM1587.48 189.877c-9.06 0-16.91-1.415-23.56-4.246-6.51-2.971-11.54-7.499-15.08-13.584-3.53-6.227-5.3-14.222-5.3-23.986v-40.754h-16.56c-1.55 0-2.9-.495-4.03-1.486-.99-.991-1.49-2.264-1.49-3.821V84.807c0-1.557.5-2.83 1.49-3.82 1.13-.991 2.48-1.486 4.03-1.486h16.56V44.477c0-1.556.49-2.83 1.48-3.82 1.14-.991 2.41-1.486 3.82-1.486h24.63c1.55 0 2.83.495 3.82 1.486.99.99 1.48 2.264 1.48 3.82v35.024h26.54c1.55 0 2.83.495 3.82 1.485.99.99 1.48 2.264 1.48 3.821V102c0 1.557-.49 2.83-1.48 3.821-.99.991-2.27 1.486-3.82 1.486h-26.54v37.782c0 4.812.92 8.632 2.76 11.463 1.84 2.83 4.96 4.245 9.34 4.245h16.35c1.55 0 2.83.495 3.82 1.486.99.99 1.48 2.264 1.48 3.82v18.467c0 1.557-.49 2.83-1.48 3.821-.99.99-2.27 1.486-3.82 1.486h-19.74ZM1635.4 189.877c-1.55 0-2.83-.496-3.82-1.486-.99-.991-1.48-2.264-1.48-3.821V84.807c0-1.557.49-2.83 1.48-3.82.99-.991 2.27-1.486 3.82-1.486h25.05c1.42 0 2.62.495 3.61 1.485 1.13.99 1.7 2.264 1.7 3.821v99.763c0 1.557-.57 2.83-1.7 3.821-.99.99-2.19 1.486-3.61 1.486h-25.05Zm-.21-126.296c-1.55 0-2.83-.495-3.82-1.486-.99-.99-1.48-2.264-1.48-3.82V39.382c0-1.557.49-2.83 1.48-3.82.99-1.133 2.27-1.699 3.82-1.699h25.26c1.56 0 2.83.566 3.82 1.698 1.13.99 1.7 2.264 1.7 3.82v18.892c0 1.557-.57 2.83-1.7 3.821-.99.99-2.26 1.486-3.82 1.486h-25.26ZM1729.89 189.877c-2.12 0-3.67-.496-4.67-1.486a18.07 18.07 0 0 1-2.54-3.821l-40.12-98.49c-.28-.565-.42-1.202-.42-1.91 0-1.273.42-2.335 1.27-3.184.99-.99 2.19-1.486 3.61-1.486H1711c1.84 0 3.26.496 4.25 1.486.99.99 1.63 1.981 1.91 2.972l23.98 65.164 24.2-65.164c.29-.99.92-1.981 1.91-2.972.99-.99 2.41-1.486 4.25-1.486h23.98c1.28 0 2.41.496 3.4 1.486.99.85 1.49 1.91 1.49 3.184 0 .708-.15 1.345-.43 1.91l-40.12 98.49c-.56 1.415-1.41 2.689-2.54 3.821-.99.99-2.62 1.486-4.89 1.486h-22.5ZM1863.66 191.999c-16.7 0-30-4.528-39.9-13.584-9.91-9.057-15.07-22.5-15.5-40.33v-7.429c.43-11.18 2.9-20.731 7.43-28.656 4.67-8.066 11.04-14.15 19.1-18.254 8.21-4.245 17.76-6.368 28.66-6.368 12.45 0 22.71 2.476 30.78 7.429 8.2 4.953 14.36 11.674 18.46 20.165 4.11 8.49 6.16 18.184 6.16 29.08v5.094c0 1.557-.57 2.83-1.7 3.821-.99.99-2.19 1.486-3.61 1.486h-67.92V145.938c.14 4.104.85 7.854 2.12 11.25 1.27 3.397 3.26 6.085 5.94 8.066 2.69 1.981 5.95 2.972 9.77 2.972 2.83 0 5.16-.425 7-1.274 1.98-.99 3.61-2.051 4.89-3.184 1.27-1.273 2.26-2.334 2.97-3.183 1.27-1.416 2.26-2.265 2.97-2.548.85-.424 2.12-.636 3.82-.636h26.32c1.41 0 2.55.424 3.4 1.273.99.708 1.41 1.769 1.27 3.184-.14 2.406-1.34 5.307-3.61 8.703-2.26 3.396-5.59 6.792-9.98 10.188-4.24 3.255-9.62 5.944-16.13 8.066-6.51 2.123-14.08 3.184-22.71 3.184Zm-18.04-68.56h35.87v-.425c0-4.528-.71-8.49-2.12-11.886-1.28-3.397-3.33-6.015-6.16-7.854-2.69-1.84-5.94-2.76-9.76-2.76-3.82 0-7.08.92-9.77 2.76-2.54 1.839-4.52 4.457-5.94 7.854-1.41 3.396-2.12 7.358-2.12 11.886v.425ZM685.212 443.113c-6.793 0-12.948-1.061-18.467-3.184-5.377-2.264-10.047-5.519-14.009-9.764-3.821-4.387-6.793-9.623-8.915-15.707-2.123-6.227-3.326-13.302-3.609-21.227-.141-2.83-.212-5.306-.212-7.429 0-2.264.071-4.74.212-7.429.283-7.641 1.486-14.505 3.609-20.589 2.122-6.085 5.094-11.321 8.915-15.708 3.82-4.387 8.49-7.712 14.009-9.976 5.519-2.406 11.674-3.609 18.467-3.609 7.075 0 13.16 1.203 18.254 3.609 5.095 2.264 9.411 5.236 12.948 8.915v-45.424c0-1.557.496-2.83 1.486-3.821.991-.99 2.264-1.486 3.821-1.486h25.896c1.415 0 2.618.496 3.608 1.486 1.132.991 1.698 2.264 1.698 3.821v140.093c0 1.556-.566 2.83-1.698 3.82-.99.991-2.193 1.486-3.608 1.486h-23.986c-1.556 0-2.83-.495-3.82-1.486-.991-.99-1.486-2.264-1.486-3.82v-6.793c-3.396 4.104-7.783 7.5-13.161 10.189-5.377 2.689-12.028 4.033-19.952 4.033Zm11.462-28.443c4.811 0 8.561-.991 11.25-2.972 2.83-2.122 4.882-4.811 6.155-8.066 1.416-3.255 2.194-6.792 2.335-10.613.142-2.83.213-5.519.213-8.066 0-2.547-.071-5.165-.213-7.854-.141-3.537-.919-6.792-2.335-9.764-1.415-3.113-3.537-5.589-6.367-7.429-2.831-1.981-6.51-2.971-11.038-2.971-4.67 0-8.42.99-11.25 2.971-2.689 1.981-4.599 4.67-5.731 8.066-1.132 3.396-1.84 7.146-2.123 11.25a68.235 68.235 0 0 0 0 13.16c.283 4.104.991 7.854 2.123 11.25 1.132 3.396 3.042 6.085 5.731 8.066 2.83 1.981 6.58 2.972 11.25 2.972ZM818.483 443.113c-8.066 0-15.283-1.84-21.651-5.519-6.227-3.679-11.109-9.056-14.646-16.132-3.538-7.217-5.307-15.99-5.307-26.32v-59.221c0-1.557.495-2.831 1.486-3.821.991-.991 2.264-1.486 3.821-1.486h26.532c1.557 0 2.831.495 3.821 1.486.991.99 1.486 2.264 1.486 3.821v57.947c0 13.868 6.226 20.802 18.679 20.802 5.802 0 10.401-1.769 13.797-5.307 3.538-3.679 5.307-8.844 5.307-15.495v-57.947c0-1.557.495-2.831 1.486-3.821.99-.991 2.264-1.486 3.82-1.486h26.533c1.557 0 2.83.495 3.821 1.486.99.99 1.486 2.264 1.486 3.821v99.763c0 1.556-.496 2.83-1.486 3.82-.991.991-2.264 1.486-3.821 1.486h-24.622c-1.415 0-2.689-.495-3.821-1.486-.991-.99-1.486-2.264-1.486-3.82v-8.066c-3.679 5.094-8.49 8.986-14.434 11.674-5.802 2.547-12.736 3.821-20.801 3.821ZM994.464 440.99c-1.556 0-2.83-.495-3.82-1.486-.991-.99-1.486-2.264-1.486-3.82V325.732h-37.783c-1.556 0-2.83-.495-3.821-1.486-.99-1.132-1.485-2.405-1.485-3.821v-22.712c0-1.556.495-2.83 1.485-3.82.991-.991 2.265-1.486 3.821-1.486h114.195c1.56 0 2.83.495 3.82 1.486.99.99 1.49 2.264 1.49 3.82v22.712c0 1.416-.5 2.689-1.49 3.821-.99.991-2.26 1.486-3.82 1.486h-37.78v109.952c0 1.556-.5 2.83-1.49 3.82-.99.991-2.26 1.486-3.82 1.486h-28.016ZM1082.16 440.99c-1.56 0-2.84-.495-3.83-1.486-.99-.99-1.48-2.264-1.48-3.82v-99.763c0-1.415.49-2.618 1.48-3.609.99-1.132 2.27-1.698 3.83-1.698h24.41c1.55 0 2.83.566 3.82 1.698.99.991 1.48 2.194 1.48 3.609v8.49c3.82-4.387 8.35-7.783 13.59-10.189 5.37-2.405 11.39-3.608 18.04-3.608h9.34c1.41 0 2.62.495 3.61 1.486 1.13.99 1.69 2.264 1.69 3.821v21.863c0 1.415-.56 2.688-1.69 3.82-.99.991-2.2 1.486-3.61 1.486h-20.59c-5.8 0-10.33 1.628-13.59 4.882-3.11 3.113-4.67 7.571-4.67 13.373v54.339c0 1.556-.56 2.83-1.69 3.82-.99.991-2.27 1.486-3.82 1.486h-26.32ZM1223.35 443.113c-16.7 0-30-4.528-39.9-13.585-9.91-9.056-15.08-22.5-15.5-40.33v-7.429c.42-11.179 2.9-20.731 7.43-28.655 4.67-8.066 11.04-14.151 19.1-18.255 8.21-4.245 17.76-6.368 28.66-6.368 12.45 0 22.71 2.477 30.78 7.43 8.2 4.952 14.36 11.674 18.46 20.165 4.11 8.49 6.16 18.183 6.16 29.079v5.095c0 1.556-.57 2.83-1.7 3.82-.99.991-2.19 1.486-3.61 1.486h-67.92v1.486c.14 4.104.85 7.854 2.12 11.25s3.26 6.085 5.94 8.066c2.69 1.981 5.95 2.972 9.77 2.972 2.83 0 5.16-.425 7-1.274 1.98-.991 3.61-2.052 4.89-3.184 1.27-1.273 2.26-2.335 2.97-3.184 1.27-1.415 2.26-2.264 2.97-2.547.85-.425 2.12-.637 3.82-.637h26.32c1.41 0 2.55.425 3.4 1.274.99.707 1.41 1.769 1.27 3.184-.14 2.405-1.34 5.306-3.61 8.702-2.26 3.397-5.59 6.793-9.98 10.189-4.24 3.255-9.62 5.943-16.13 8.066-6.51 2.123-14.08 3.184-22.71 3.184Zm-18.04-68.561h35.87v-.424c0-4.528-.71-8.491-2.12-11.887-1.28-3.396-3.33-6.014-6.16-7.854-2.69-1.839-5.94-2.759-9.76-2.759-3.82 0-7.08.92-9.77 2.759-2.54 1.84-4.52 4.458-5.94 7.854-1.41 3.396-2.12 7.359-2.12 11.887v.424ZM1303.75 440.99c-1.56 0-2.84-.495-3.83-1.486-.99-.99-1.48-2.264-1.48-3.82v-99.763c0-1.557.49-2.831 1.48-3.821.99-.991 2.27-1.486 3.83-1.486h23.13c1.56 0 2.83.495 3.82 1.486.99.99 1.49 2.264 1.49 3.821v7.217c2.83-3.821 6.79-7.147 11.88-9.977 5.1-2.971 11.11-4.528 18.05-4.67 16.27-.283 27.45 5.873 33.53 18.467 3.26-5.377 7.93-9.764 14.01-13.16 6.09-3.538 12.74-5.307 19.96-5.307 7.35 0 13.94 1.699 19.74 5.095 5.94 3.254 10.68 8.349 14.22 15.283 3.54 6.792 5.3 15.636 5.3 26.532v60.283c0 1.556-.56 2.83-1.69 3.82-.99.991-2.2 1.486-3.61 1.486h-24.62c-1.56 0-2.9-.495-4.04-1.486-.99-.99-1.48-2.264-1.48-3.82v-58.797c0-4.953-.71-8.844-2.13-11.674-1.41-2.972-3.32-5.095-5.73-6.368-2.4-1.274-5.16-1.91-8.27-1.91-2.55 0-5.1.636-7.65 1.91-2.4 1.273-4.38 3.396-5.94 6.368-1.41 2.83-2.12 6.721-2.12 11.674v58.797c0 1.556-.5 2.83-1.49 3.82-.99.991-2.26 1.486-3.82 1.486h-24.62c-1.56 0-2.83-.495-3.82-1.486-.99-.99-1.49-2.264-1.49-3.82v-58.797c0-4.953-.78-8.844-2.33-11.674-1.56-2.972-3.54-5.095-5.95-6.368-2.4-1.274-5.09-1.91-8.06-1.91-2.55 0-5.1.636-7.64 1.91-2.41 1.273-4.39 3.396-5.95 6.368-1.41 2.83-2.12 6.651-2.12 11.462v59.009c0 1.556-.57 2.83-1.7 3.82-.99.991-2.26 1.486-3.82 1.486h-25.04ZM1560.17 443.113c-7.93 0-14.58-1.344-19.96-4.033-5.23-2.689-9.55-6.085-12.94-10.189v6.793c0 1.556-.57 2.83-1.7 3.82-.99.991-2.2 1.486-3.61 1.486h-23.99c-1.55 0-2.83-.495-3.82-1.486-.99-.99-1.48-2.264-1.48-3.82V295.591c0-1.557.49-2.83 1.48-3.821.99-.99 2.27-1.486 3.82-1.486h25.9c1.56 0 2.83.496 3.82 1.486.99.991 1.49 2.264 1.49 3.821v45.424c3.39-3.679 7.64-6.651 12.73-8.915 5.24-2.406 11.32-3.609 18.26-3.609 7.07 0 13.3 1.203 18.68 3.609 5.51 2.264 10.18 5.589 14 9.976 3.83 4.387 6.8 9.623 8.92 15.708 2.12 6.084 3.32 12.948 3.61 20.589.14 2.689.21 5.165.21 7.429 0 2.123-.07 4.599-.21 7.429-.29 7.925-1.56 15-3.82 21.227-2.13 6.084-5.1 11.32-8.92 15.707-3.82 4.245-8.42 7.5-13.79 9.764-5.38 2.123-11.61 3.184-18.68 3.184Zm-11.47-28.443c4.82 0 8.57-.991 11.25-2.972 2.69-1.981 4.6-4.67 5.73-8.066 1.28-3.396 2.06-7.146 2.34-11.25.28-4.386.28-8.773 0-13.16-.28-4.104-1.06-7.854-2.34-11.25-1.13-3.396-3.04-6.085-5.73-8.066-2.68-1.981-6.43-2.971-11.25-2.971-4.38 0-7.99.99-10.82 2.971-2.83 1.84-4.95 4.316-6.37 7.429-1.41 2.972-2.19 6.227-2.33 9.764-.15 2.689-.22 5.307-.22 7.854 0 2.547.07 5.236.22 8.066.14 3.821.84 7.358 2.12 10.613 1.27 3.255 3.32 5.944 6.15 8.066 2.83 1.981 6.58 2.972 11.25 2.972ZM1631.88 440.99c-1.56 0-2.83-.495-3.82-1.486-.99-.99-1.49-2.264-1.49-3.82V295.591c0-1.557.5-2.83 1.49-3.821.99-.99 2.26-1.486 3.82-1.486h25.05c1.55 0 2.83.496 3.82 1.486.99.991 1.48 2.264 1.48 3.821v140.093c0 1.556-.49 2.83-1.48 3.82-.99.991-2.27 1.486-3.82 1.486h-25.05ZM1720.42 443.113c-7.64 0-14.5-1.415-20.59-4.245-5.94-2.972-10.68-6.934-14.22-11.887-3.54-4.953-5.31-10.542-5.31-16.769 0-10.047 4.11-17.971 12.32-23.773 8.2-5.943 19.1-9.976 32.68-12.099l26.54-4.033v-2.972c0-5.094-1.06-8.985-3.19-11.674-2.12-2.689-6.01-4.033-11.67-4.033-3.96 0-7.22.778-9.77 2.335-2.4 1.556-4.31 3.679-5.73 6.368-1.27 1.839-3.04 2.759-5.3 2.759h-23.78c-1.55 0-2.76-.424-3.6-1.273-.85-.991-1.21-2.123-1.07-3.397 0-2.547.92-5.448 2.76-8.702 1.98-3.397 4.96-6.722 8.92-9.977 3.96-3.254 9.05-5.943 15.28-8.066 6.23-2.122 13.73-3.184 22.5-3.184 9.2 0 17.05 1.062 23.56 3.184 6.51 2.123 11.75 5.095 15.71 8.915 4.1 3.821 7.15 8.349 9.13 13.585 1.98 5.094 2.97 10.755 2.97 16.981v64.528c0 1.556-.57 2.83-1.7 3.82-.99.991-2.19 1.486-3.61 1.486h-24.62c-1.56 0-2.83-.495-3.82-1.486-.99-.99-1.49-2.264-1.49-3.82v-7.429c-1.84 2.688-4.31 5.165-7.43 7.429-3.11 2.264-6.79 4.033-11.03 5.306-4.11 1.415-8.92 2.123-14.44 2.123Zm9.98-24.198c4.1 0 7.78-.849 11.04-2.547 3.39-1.84 6.01-4.599 7.85-8.278 1.98-3.821 2.97-8.562 2.97-14.222v-2.972l-18.04 3.184c-6.65 1.132-11.53 2.901-14.65 5.307-2.97 2.264-4.45 4.953-4.45 8.066 0 2.406.7 4.457 2.12 6.156 1.41 1.698 3.25 3.042 5.52 4.032 2.26.85 4.81 1.274 7.64 1.274ZM1829.58 481.32c-1.28 0-2.34-.424-3.19-1.273-.85-.85-1.27-1.911-1.27-3.184v-1.274c.14-.424.35-.92.64-1.486l16.55-39.905-40.75-96.367c-.43-.991-.64-1.84-.64-2.547.28-1.274.85-2.335 1.7-3.184.85-.991 1.91-1.486 3.18-1.486h24.2c1.84 0 3.18.495 4.03 1.486.99.849 1.63 1.839 1.91 2.972l24.41 61.768 24.84-61.768a11.151 11.151 0 0 1 2.12-2.972c.99-.991 2.41-1.486 4.25-1.486h23.77c1.27 0 2.34.495 3.18 1.486.99.849 1.49 1.839 1.49 2.972 0 .707-.21 1.627-.64 2.759l-60.07 139.032c-.42 1.132-1.13 2.122-2.12 2.971-.99.991-2.41 1.486-4.24 1.486h-23.35Z"/><defs><clipPath id="a"><path fill="#fff" d="M0 0h512v512H0z"/></clipPath></defs></svg>