<svg width="402" height="202" fill="none" xmlns="http://www.w3.org/2000/svg"><g clip-path="url(#a)"><path d="M53.19 68.64V79.1a5.45 5.45 0 0 0 5.44 5.45h10.23V68.64H53.19ZM78.69 84.55h10.56a5.45 5.45 0 0 0 5.44-5.45V68.64h-16v15.91ZM68.86 42.97H53.19v15.81h15.67V42.97ZM94.69 58.78V42.97h-16v15.81h16Z" fill="#939598"/><path d="M125.55 173.29a65.861 65.861 0 0 1-23.55 18.9l-.21.1-.14-.19-24.32-32.65a4.225 4.225 0 0 0-3.39-1.7 4.232 4.232 0 0 0-3.39 1.7l-24.47 32.84-.21-.1a65.867 65.867 0 0 1-23.53-18.9l-.14-.17.13-.18 51.61-69.25 24.59 33 27.15 36.44-.13.16ZM143.65 26h-28a4.239 4.239 0 0 0-2.864 7.16 4.239 4.239 0 0 0 2.864 1.31h23.79v98.39a66.12 66.12 0 0 1-1.1 11.78l-.11.64-25.51-33.41a4.229 4.229 0 0 0-6.75 0l-7.67 10.35-21-28.15a4.23 4.23 0 0 0-6.78 0l-21 28.15-7.66-10.29a4.224 4.224 0 0 0-5.253-1.237 4.224 4.224 0 0 0-1.487 1.237L9.66 145.3l-.11-.64a66.078 66.078 0 0 1-1.1-11.78V34.49h23.79a4.24 4.24 0 0 0 0-8.47h-28A4.24 4.24 0 0 0 0 30.26v102.62a73.89 73.89 0 0 0 45.43 68.38 4.23 4.23 0 0 0 5.4-1.19l23.11-31 .23.31 22.76 30.55a4.287 4.287 0 0 0 2.18 1.52l.25.08a4.145 4.145 0 0 0 2.83-.15 74.001 74.001 0 0 0 45.69-68.49V30.26a4.238 4.238 0 0 0-4.23-4.26" fill="#10069F"/><path d="M95.84 26H52l-1-5.7.46.15A22.68 22.68 0 0 0 59 21.67c6 0 11.22-2.09 14.77-5.9l.21-.22.21.22c3.55 3.81 8.8 5.9 14.77 5.9a22.68 22.68 0 0 0 7.45-1.2l.45-.15L95.84 26Zm12.28-21.76a4.232 4.232 0 0 0-3.863-4.179A4.229 4.229 0 0 0 99.73 3.51L99 7.79c-1.44 3.34-5.3 5.41-10.06 5.41-5 0-10.75-2.35-10.75-9a4.23 4.23 0 1 0-8.46 0c0 6.61-5.79 9-10.75 9-4.76 0-8.62-2.07-10.06-5.41v-.06l-.73-4.22A4.23 4.23 0 0 0 44 0h-.35a4.2 4.2 0 0 0-3.86 4.22v.82c.13 1.09.76 4.26.89 4.89l3.64 21a4.21 4.21 0 0 0 4.16 3.51H99.4a4.21 4.21 0 0 0 4.16-3.44l3.63-21c.13-.62.79-4 .91-5.17v-.59M186.48 34.54h-16.77v76.41h16.77V34.54ZM207.62 78.2V34.54h16.78v43.23c0 12.44 6.2 18.88 16.45 18.88s16.44-6.22 16.44-18.34V34.54h16.78v43.12c0 23.14-13 34.49-33.44 34.49-20.44 0-33-11.46-33-33.95M312.2 50.04h-23.21v-15.5h63.18v15.5h-23.2v60.91H312.2V50.04ZM169.23 134.3v-.06a11.168 11.168 0 0 1 11.45-11.38 11.31 11.31 0 0 1 8.66 3.4l-3.07 3.55a8.12 8.12 0 0 0-5.62-2.49c-3.7 0-6.37 3.09-6.37 6.86v.06c0 3.77 2.61 6.92 6.37 6.92 2.51 0 4-1 5.77-2.58l3.08 3.11a11.218 11.218 0 0 1-9 3.93 11.09 11.09 0 0 1-8.038-3.267 11.094 11.094 0 0 1-3.232-8.053M193.21 123.24h4.83v8.7h8.91v-8.7h4.83v22h-4.83v-8.83h-8.91v8.83h-4.83v-22ZM229.51 136l-2.92-7.13-2.91 7.13h5.83Zm-5.08-13h4.45l9.42 22.16h-5.06l-2-4.93H222l-2 4.93h-5l9.43-22.16ZM241.53 123.24h5.21l5.77 9.3 5.78-9.3h5.2v22h-4.8v-14.36l-6.18 9.4h-.12l-6.12-9.31v14.27h-4.74v-22ZM278.9 136.16h-5.58V141h5.74c2.13 0 3.42-.75 3.42-2.39v-.06c0-1.48-1.1-2.39-3.58-2.39Zm2.36-6.42c0-1.44-1.13-2.26-3.17-2.26h-4.77v4.65h4.46c2.13 0 3.48-.69 3.48-2.32v-.07Zm-12.65-6.5h10.2a7.909 7.909 0 0 1 5.74 2 5.005 5.005 0 0 1 1.51 3.74v.02a5.121 5.121 0 0 1-.746 2.8 5.123 5.123 0 0 1-2.144 1.95c2.54 1 4.11 2.45 4.11 5.41v.06c0 4-3.26 6-8.22 6h-10.45v-21.98ZM301.31 116.57l4.11 1.79-4.27 3.15h-3.64l3.8-4.94Zm-10.2 6.67h16.57v4.3h-11.77V132h10.36v4.3h-10.36v4.63h11.92v4.3h-16.72v-21.99ZM321.71 133.93c2.35 0 3.7-1.26 3.7-3.12v-.06c0-2.07-1.44-3.14-3.79-3.14h-4.81v6.32h4.9ZM312 123.24h10a8.728 8.728 0 0 1 6.4 2.23 6.908 6.908 0 0 1 1.89 5v.06a6.824 6.824 0 0 1-4.71 6.82l5.36 7.86h-5.64l-4.71-7h-3.8v7H312v-21.97ZM339.91 136.57l-8.44-13.33h5.65l5.24 8.83 5.33-8.83h5.49l-8.44 13.23v8.77h-4.83v-8.67Z" fill="#10069F"/><path d="M169.76 166.93v-9.17h2.79v9.06c0 3 1.52 4.52 4 4.52s4-1.47 4-4.41v-9.17h2.79v9c0 4.76-2.68 7.15-6.83 7.15s-6.77-2.39-6.77-7M187.03 157.76h2.59l8.52 11.01v-11.01h2.74v15.93h-2.34l-8.76-11.33v11.33h-2.75v-15.93ZM207.76 157.76h-2.79v15.92h2.79v-15.92ZM210.48 157.76h3.09l4.79 12.24 4.77-12.24h3.02l-6.59 16.04h-2.47l-6.61-16.04ZM228.71 157.76h11.78v2.5h-8.99v4.14h7.97v2.51h-7.97v4.27h9.1v2.51h-11.89v-15.93ZM250.64 165.66c2 0 3.27-1 3.27-2.66 0-1.71-1.23-2.64-3.29-2.64h-4.07v5.35l4.09-.05Zm-6.88-7.9h7.08a6.382 6.382 0 0 1 4.59 1.6 4.79 4.79 0 0 1 1.32 3.43v.05a4.788 4.788 0 0 1-3.77 4.82l4.29 6H254l-3.9-5.56h-3.5v5.56h-2.79l-.05-15.9ZM258.94 171.37l1.68-2a7.38 7.38 0 0 0 5 2.07c1.73 0 2.82-.81 2.82-2 0-1.14-.64-1.76-3.59-2.44-3.38-.82-5.29-1.82-5.29-4.75 0-2.73 2.27-4.61 5.43-4.61a8.77 8.77 0 0 1 5.76 2l-1.5 2.11A7.19 7.19 0 0 0 265 160c-1.64 0-2.59.84-2.59 1.88 0 1.23.73 1.77 3.79 2.5 3.36.82 5.09 2 5.09 4.66 0 3-2.34 4.75-5.68 4.75a9.807 9.807 0 0 1-6.63-2.54M277.33 157.76h-2.79v15.92h2.79v-15.92ZM285.32 160.36h-5.04v-2.6h12.9v2.6h-5.05v13.33h-2.81v-13.33ZM303.32 153.14l2.5 1.1-2.91 2.2h-2.13l2.54-3.3Zm-7.32 4.62h11.78v2.51h-9v4.13h8v2.51h-8v4.27h9.1v2.51H296v-15.93ZM316.6 171.37l1.68-2a7.36 7.36 0 0 0 5 2.07c1.72 0 2.81-.81 2.81-2 0-1.14-.63-1.76-3.58-2.44-3.39-.82-5.29-1.82-5.29-4.75 0-2.73 2.27-4.61 5.42-4.61a8.778 8.778 0 0 1 5.77 2l-1.5 2.11a7.193 7.193 0 0 0-4.31-1.63c-1.64 0-2.59.84-2.59 1.88 0 1.23.72 1.77 3.79 2.5 3.36.82 5.09 2 5.09 4.66 0 3-2.34 4.75-5.68 4.75a9.807 9.807 0 0 1-6.63-2.54M341.32 167.36l-2.75-6.36-2.72 6.37 5.47-.01Zm-4-9.71h2.58l7 16h-3l-1.61-3.85h-7.51l-1.64 3.85h-2.86l7.04-16ZM345.84 157.76h3.08l4.8 12.24 4.76-12.24h3.02l-6.58 16.04h-2.48l-6.6-16.04ZM376.05 165.77v-.05a5.444 5.444 0 0 0-5.4-5.66 5.39 5.39 0 0 0-3.879 1.667 5.383 5.383 0 0 0-1.481 3.953c-.028.729.09 1.455.349 2.137a5.429 5.429 0 0 0 2.932 3.068c.669.289 1.39.44 2.119.445a5.342 5.342 0 0 0 2.108-.43 5.362 5.362 0 0 0 3.252-5.17v.04Zm-13.69-.04v-.05a8.307 8.307 0 0 1 8.31-8.31 8.31 8.31 0 0 1 8.31 8.31 8.31 8.31 0 0 1-16.62.05M385.15 157.76h-2.79v15.92h2.79v-15.92ZM389.24 157.76h11.78v2.5h-8.99v4.14H400v2.51h-7.97v4.27h9.1v2.51h-11.89v-15.93ZM169.72 185.8h2.98l4.84 7.53 4.83-7.53h2.98v15.93h-2.8v-11.42l-5.01 7.5h-.1l-4.97-7.46v11.38h-2.75V185.8ZM202.25 193.81a5.453 5.453 0 0 0-3.278-5.221 5.457 5.457 0 0 0-2.122-.449 5.394 5.394 0 0 0-3.879 1.667 5.383 5.383 0 0 0-1.481 3.953v.05a5.424 5.424 0 0 0 .353 2.136 5.436 5.436 0 0 0 5.057 3.504 5.337 5.337 0 0 0 3.874-1.654 5.34 5.34 0 0 0 1.476-3.946v-.04Zm-13.68.04a8.308 8.308 0 0 1 14.062-5.732 8.313 8.313 0 0 1 2.548 5.682v.05a8.31 8.31 0 0 1-16.61 0M208.41 185.8H211l8.51 11.01V185.8h2.74v15.93h-2.33l-8.77-11.33v11.33h-2.74V185.8ZM230.09 188.4h-5.04v-2.6h12.89v2.6h-5.04v13.33h-2.81V188.4ZM254.55 194.88h-4.42v4.37h4.63c1.9 0 3.06-.75 3.06-2.18 0-1.34-1.06-2.14-3.27-2.14v-.05Zm2.39-4.52c0-1.25-1-2-2.79-2h-4v4.23h3.81c1.79 0 3-.7 3-2.16l-.02-.07Zm-9.56-4.51h7.13a5.76 5.76 0 0 1 4.15 1.41 3.568 3.568 0 0 1 1.07 2.64v.05a3.796 3.796 0 0 1-2.27 3.55c1.86.63 3.15 1.71 3.15 3.86v.05c0 2.84-2.33 4.37-5.87 4.37h-7.36v-15.93ZM263.61 185.8h2.79v13.38h8.36v2.55h-11.15V185.8ZM287.13 195.4l-2.75-6.4-2.73 6.37 5.48.03Zm-4-9.71h2.59l7 16h-2.95l-1.61-3.85h-7.52l-1.64 3.89h-2.86l6.99-16.04ZM295.27 185.8h2.59l8.52 11.01V185.8h2.74v15.93h-2.34l-8.76-11.33v11.33h-2.75V185.8ZM312.34 193.81a8.07 8.07 0 0 1 2.345-5.867 8.072 8.072 0 0 1 5.855-2.373 8.256 8.256 0 0 1 6.22 2.48l-1.76 2.03a6.373 6.373 0 0 0-4.45-2 5.34 5.34 0 0 0-3.81 1.701 5.35 5.35 0 0 0-1.43 3.919v.05a5.352 5.352 0 0 0 5.24 5.64 6.218 6.218 0 0 0 4.56-2l1.79 1.82a8.17 8.17 0 0 1-6.44 2.82 8.01 8.01 0 0 1-7.528-5.049 7.98 7.98 0 0 1-.562-3.141" fill="#939598"/></g><defs><clipPath id="a"><path fill="#fff" d="M0 0h401.13v202H0z"/></clipPath></defs></svg>