<svg width="304" height="64" fill="none" xmlns="http://www.w3.org/2000/svg"><path fill-rule="evenodd" clip-rule="evenodd" d="M64 32c0 17.673-14.327 32-32 32a31.851 31.851 0 0 1-16.333-4.476L3.461 63.01c-1.508.431-2.903-.964-2.472-2.473l3.487-12.205A31.851 31.851 0 0 1 0 32C0 14.327 14.327 0 32 0c17.673 0 32 14.327 32 32ZM26.68 42.242c.07.51.523.877 1.038.853A94.752 94.752 0 0 1 32 43c1.493 0 2.92.034 4.282.095a.997.997 0 0 0 1.038-.853 72.26 72.26 0 0 0 .578-6.205.99.99 0 0 0-.992-1.037h-9.812a.99.99 0 0 0-.992 1.037c.11 2.172.308 4.248.578 6.205Zm0-20.484a.997.997 0 0 1 1.038-.853c1.361.061 2.789.095 4.282.095 1.493 0 2.92-.034 4.282-.095a.997.997 0 0 1 1.038.853 72.26 72.26 0 0 1 .578 6.205.99.99 0 0 1-.992 1.037h-9.812a.99.99 0 0 1-.992-1.037c.11-2.172.308-4.248.578-6.205Zm16.636 20.92a1.022 1.022 0 0 0 .867 1.146c2.551.364 4.733.813 6.544 1.266.912.227 1.729.456 2.452.676a.99.99 0 0 0 1.142-.425 25.831 25.831 0 0 0 3.356-9.23c.094-.59-.372-1.111-.97-1.111H44.914c-.539 0-.98.427-1.005.965a78.892 78.892 0 0 1-.593 6.713ZM44.914 29a1.01 1.01 0 0 1-1.005-.965 78.892 78.892 0 0 0-.593-6.713 1.022 1.022 0 0 1 .867-1.146 64.824 64.824 0 0 0 6.544-1.266 50.788 50.788 0 0 0 2.452-.676.99.99 0 0 1 1.142.425 25.831 25.831 0 0 1 3.356 9.23c.094.59-.372 1.111-.97 1.111H44.914ZM29.286 49.04a.968.968 0 0 0-.904 1.246c.237.788.488 1.534.75 2.235.939 2.502 1.911 4.11 2.687 4.984.097.11.265.11.362 0 .776-.875 1.748-2.483 2.686-4.984.263-.7.514-1.447.751-2.235a.968.968 0 0 0-.904-1.246 90.1 90.1 0 0 0-5.428 0Zm12.52 1.409c.13-.49.599-.814 1.1-.745 2.532.345 4.654.778 6.366 1.206a.25.25 0 0 1 .108.428 26.01 26.01 0 0 1-7.733 4.813c-.801.32-1.548-.511-1.24-1.318a43.763 43.763 0 0 0 1.4-4.384Zm-7.092-35.49a90.1 90.1 0 0 1-5.428 0 .968.968 0 0 1-.904-1.245c.237-.788.488-1.534.75-2.235.939-2.501 1.911-4.11 2.687-4.984a.242.242 0 0 1 .362 0c.776.875 1.748 2.483 2.686 4.984.263.7.514 1.447.751 2.235a.968.968 0 0 1-.904 1.246Zm14.666-2.297a.25.25 0 0 1-.108.428 59.403 59.403 0 0 1-6.366 1.206 1.003 1.003 0 0 1-1.1-.745 43.765 43.765 0 0 0-1.399-4.384c-.308-.807.439-1.639 1.24-1.318a26.008 26.008 0 0 1 7.733 4.813Z" fill="#3DE5FF"/><path d="M80.632 20.077c-.201 0-.357-.056-.467-.17a.727.727 0 0 1-.165-.48V.933c0-.188.055-.34.165-.452.11-.132.266-.198.467-.198h1.457c.184 0 .33.066.44.198.11.113.165.264.165.452v16.684h9.154c.202 0 .358.066.468.198.11.113.165.273.165.48v1.132a.727.727 0 0 1-.165.48c-.11.114-.266.17-.468.17H80.633ZM101.621 20.077c-.202 0-.358-.056-.467-.17a.726.726 0 0 1-.165-.48V.933c0-.188.055-.34.165-.452.109-.132.265-.198.467-.198h1.457c.183 0 .33.066.44.198a.574.574 0 0 1 .192.452v18.494a.665.665 0 0 1-.192.48.586.586 0 0 1-.44.17h-1.457ZM120.931 20.36c-1.686 0-3.088-.32-4.206-.961a6.244 6.244 0 0 1-2.501-2.687c-.568-1.15-.88-2.488-.935-4.015a114.628 114.628 0 0 1 0-5.033c.055-1.528.367-2.866.935-4.016A6.244 6.244 0 0 1 116.725.96c1.118-.64 2.52-.961 4.206-.961 1.265 0 2.374.18 3.327.537.953.358 1.741.84 2.364 1.442a6.195 6.195 0 0 1 1.457 2.036 6.26 6.26 0 0 1 .55 2.29.47.47 0 0 1-.165.425.552.552 0 0 1-.412.17h-1.512a.723.723 0 0 1-.44-.142c-.11-.094-.193-.264-.248-.509-.311-1.47-.898-2.479-1.759-3.025-.843-.547-1.906-.82-3.189-.82-1.466 0-2.63.433-3.491 1.3-.862.849-1.329 2.215-1.402 4.1a68.4 68.4 0 0 0 0 4.751c.073 1.886.54 3.262 1.402 4.129.861.848 2.025 1.272 3.491 1.272 1.283 0 2.346-.273 3.189-.82.861-.546 1.448-1.555 1.759-3.025.055-.245.138-.415.248-.51a.724.724 0 0 1 .44-.14h1.512c.164 0 .302.056.412.169a.47.47 0 0 1 .165.424 6.498 6.498 0 0 1-.55 2.319 6.29 6.29 0 0 1-1.457 2.008c-.623.603-1.411 1.084-2.364 1.442-.953.358-2.062.537-3.327.537ZM138.443 20.077c-.201 0-.357-.056-.467-.17a.726.726 0 0 1-.165-.48V.96c0-.207.055-.367.165-.48.11-.132.266-.198.467-.198h11.354c.202 0 .358.066.467.198.11.113.165.273.165.48v1.075c0 .207-.055.368-.165.48-.109.114-.265.17-.467.17h-9.347V8.88h8.742c.202 0 .358.066.468.198.11.113.165.274.165.48v1.047a.726.726 0 0 1-.165.48c-.11.114-.266.17-.468.17h-8.742v6.42h9.567c.202 0 .357.056.467.17.11.112.165.273.165.48v1.103a.726.726 0 0 1-.165.48c-.11.114-.265.17-.467.17h-11.574ZM160.613 20.077c-.201 0-.357-.056-.467-.17a.726.726 0 0 1-.165-.48V.96c0-.207.055-.367.165-.48.11-.132.266-.198.467-.198h1.265c.22 0 .385.056.495.17.11.094.174.17.192.226l9.127 14.421V.961c0-.207.055-.367.165-.48.11-.132.266-.198.467-.198h1.32c.201 0 .357.066.467.198.129.113.193.273.193.48V19.4a.662.662 0 0 1-.193.48.543.543 0 0 1-.44.198h-1.319c-.202 0-.358-.056-.468-.17a3.62 3.62 0 0 0-.192-.226l-9.099-14.28v14.026a.666.666 0 0 1-.193.48c-.11.114-.266.17-.467.17h-1.32ZM191.495 20.36c-1.686 0-3.088-.32-4.206-.961a6.24 6.24 0 0 1-2.502-2.687c-.568-1.15-.88-2.488-.935-4.015a114.808 114.808 0 0 1 0-5.033c.055-1.528.367-2.866.935-4.016A6.24 6.24 0 0 1 187.289.96c1.118-.64 2.52-.961 4.206-.961 1.264 0 2.373.18 3.326.537.953.358 1.741.84 2.364 1.442a6.18 6.18 0 0 1 1.457 2.036 6.26 6.26 0 0 1 .55 2.29.47.47 0 0 1-.165.425.55.55 0 0 1-.412.17h-1.512a.723.723 0 0 1-.44-.142c-.11-.094-.193-.264-.248-.509-.311-1.47-.898-2.479-1.759-3.025-.843-.547-1.906-.82-3.189-.82-1.466 0-2.63.433-3.491 1.3-.862.849-1.329 2.215-1.402 4.1a68.4 68.4 0 0 0 0 4.751c.073 1.886.54 3.262 1.402 4.129.861.848 2.025 1.272 3.491 1.272 1.283 0 2.346-.273 3.189-.82.861-.546 1.448-1.555 1.759-3.025.055-.245.138-.415.248-.51a.724.724 0 0 1 .44-.14h1.512a.55.55 0 0 1 .412.169.47.47 0 0 1 .165.424 6.498 6.498 0 0 1-.55 2.319 6.274 6.274 0 0 1-1.457 2.008c-.623.603-1.411 1.084-2.364 1.442-.953.358-2.062.537-3.326.537ZM209.007 20.077c-.202 0-.358-.056-.468-.17a.726.726 0 0 1-.165-.48V.96c0-.207.055-.367.165-.48.11-.132.266-.198.468-.198h11.353c.202 0 .358.066.468.198.11.113.165.273.165.48v1.075c0 .207-.055.368-.165.48-.11.114-.266.17-.468.17h-9.346V8.88h8.742c.201 0 .357.066.467.198.11.113.165.274.165.48v1.047a.726.726 0 0 1-.165.48c-.11.114-.266.17-.467.17h-8.742v6.42h9.566c.202 0 .358.056.468.17.11.112.165.273.165.48v1.103a.726.726 0 0 1-.165.48c-.11.114-.266.17-.468.17h-11.573ZM243.413 20.077c-.201 0-.357-.056-.467-.17a.726.726 0 0 1-.165-.48V.96c0-.207.055-.367.165-.48.11-.132.266-.198.467-.198h6.983c1.356 0 2.529.226 3.519.678 1.008.453 1.786 1.132 2.336 2.036.55.886.825 1.999.825 3.337 0 1.339-.275 2.451-.825 3.337-.55.886-1.328 1.555-2.336 2.008-.99.452-2.163.678-3.519.678h-4.866v7.07a.662.662 0 0 1-.193.48c-.109.114-.265.17-.467.17h-1.457Zm2.089-10.095h4.756c1.357 0 2.374-.311 3.052-.933.678-.622 1.017-1.527 1.017-2.715 0-1.169-.33-2.073-.99-2.714-.659-.641-1.686-.962-3.079-.962h-4.756v7.324ZM266.549 20.077c-.201 0-.357-.056-.467-.17a.726.726 0 0 1-.165-.48V.96c0-.207.055-.367.165-.48.11-.132.266-.198.467-.198h6.708c2.071 0 3.711.5 4.921 1.498 1.21 1 1.814 2.48 1.814 4.44 0 1.452-.357 2.64-1.072 3.563-.696.905-1.649 1.536-2.859 1.895l4.234 7.522a.718.718 0 0 1 .082.31c0 .152-.064.283-.192.397a.52.52 0 0 1-.385.17h-1.32c-.311 0-.54-.086-.687-.255a4.721 4.721 0 0 1-.385-.51l-3.986-7.182h-4.811v7.296a.665.665 0 0 1-.192.48c-.11.114-.266.17-.468.17h-1.402Zm2.062-10.35h4.536c1.375 0 2.401-.292 3.079-.876.678-.603 1.017-1.49 1.017-2.658 0-1.15-.339-2.027-1.017-2.63-.66-.603-1.686-.905-3.079-.905h-4.536v7.07ZM296.303 20.36c-1.558 0-2.896-.273-4.014-.82-1.118-.566-1.979-1.423-2.584-2.573-.605-1.17-.944-2.63-1.017-4.383a103.807 103.807 0 0 1 0-4.78c.073-1.734.421-3.176 1.044-4.326.642-1.169 1.521-2.036 2.639-2.601C293.508.292 294.818 0 296.303 0c1.502 0 2.813.292 3.931.877 1.136.565 2.025 1.432 2.666 2.601.642 1.15.99 2.592 1.045 4.327.037.83.055 1.63.055 2.403 0 .754-.018 1.546-.055 2.376-.055 1.753-.394 3.214-1.017 4.383-.605 1.15-1.466 2.007-2.584 2.573-1.118.547-2.465.82-4.041.82Zm0-2.404c1.411 0 2.556-.433 3.436-1.3.898-.868 1.384-2.272 1.457-4.214.037-.848.055-1.602.055-2.262 0-.679-.018-1.433-.055-2.262-.037-1.301-.275-2.357-.715-3.167-.421-.811-.989-1.405-1.704-1.782s-1.54-.565-2.474-.565c-.898 0-1.705.188-2.42.565-.714.377-1.292.971-1.732 1.782-.421.81-.659 1.866-.714 3.167-.019.83-.028 1.583-.028 2.262 0 .66.009 1.414.028 2.262.073 1.942.559 3.346 1.457 4.214.898.867 2.034 1.3 3.409 1.3ZM94.71 64c-3.053 0-5.65-.511-7.794-1.535-2.11-1.056-3.75-2.574-4.92-4.554-1.168-2.013-1.817-4.455-1.947-7.325A182.032 182.032 0 0 1 80 46.23c0-1.551.016-3.036.049-4.455.13-2.838.779-5.247 1.948-7.227 1.201-2.014 2.874-3.548 5.017-4.604 2.143-1.056 4.708-1.584 7.695-1.584 2.176 0 4.156.28 5.942.841 1.786.561 3.329 1.37 4.627 2.426 1.299 1.056 2.306 2.293 3.02 3.713.715 1.418 1.104 3.002 1.169 4.752a.945.945 0 0 1-.341.742.982.982 0 0 1-.73.297h-5.553c-.39 0-.698-.099-.925-.297-.228-.198-.406-.528-.536-.99-.487-1.947-1.299-3.284-2.435-4.01-1.137-.726-2.55-1.089-4.238-1.089-2.013 0-3.604.562-4.773 1.684-1.169 1.121-1.802 2.986-1.9 5.593a118.356 118.356 0 0 0 0 8.316c.098 2.607.731 4.471 1.9 5.593 1.169 1.123 2.76 1.684 4.773 1.684 1.689 0 3.101-.364 4.238-1.09 1.169-.758 1.98-2.095 2.435-4.009.13-.495.308-.825.536-.99.227-.198.535-.297.925-.297h5.553c.292 0 .535.099.73.297a.945.945 0 0 1 .341.742c-.065 1.75-.454 3.334-1.169 4.752-.714 1.42-1.721 2.657-3.02 3.713-1.298 1.056-2.841 1.864-4.627 2.425-1.785.561-3.766.842-5.942.842ZM128.48 64c-2.955 0-5.504-.495-7.647-1.485-2.143-.99-3.815-2.475-5.017-4.455-1.201-2.013-1.85-4.538-1.948-7.574a186.686 186.686 0 0 1 0-8.514c.098-2.97.747-5.461 1.948-7.474 1.234-2.046 2.923-3.58 5.066-4.603 2.175-1.023 4.708-1.535 7.598-1.535 2.857 0 5.358.512 7.501 1.535 2.175 1.023 3.88 2.557 5.114 4.603 1.234 2.013 1.883 4.505 1.948 7.474a96.29 96.29 0 0 1 .097 4.307c0 1.386-.032 2.788-.097 4.207-.097 3.037-.747 5.561-1.948 7.574-1.202 1.98-2.874 3.465-5.017 4.455-2.143.99-4.676 1.485-7.598 1.485Zm0-6.386c1.883 0 3.426-.577 4.627-1.732 1.234-1.188 1.883-3.069 1.948-5.643.065-1.452.098-2.805.098-4.059 0-1.287-.033-2.64-.098-4.059-.032-1.716-.341-3.119-.925-4.208-.585-1.088-1.364-1.88-2.338-2.375-.942-.528-2.046-.792-3.312-.792s-2.387.264-3.361.791c-.974.495-1.753 1.288-2.338 2.377-.552 1.088-.86 2.491-.925 4.207a174.802 174.802 0 0 0-.049 4.059c0 1.254.016 2.607.049 4.059.097 2.574.747 4.455 1.948 5.643 1.202 1.155 2.76 1.733 4.676 1.733ZM150.404 63.505c-.325 0-.617-.116-.877-.347-.227-.23-.341-.528-.341-.89V30.093c0-.363.114-.66.341-.892.26-.23.552-.346.877-.346h4.529c.487 0 .845.132 1.072.396.26.264.438.462.536.594l8.962 16.78 9.059-16.78c.065-.132.211-.33.438-.594.26-.264.633-.396 1.121-.396h4.529c.357 0 .65.116.877.346.227.232.341.529.341.892v32.174c0 .363-.114.66-.341.891-.227.231-.52.347-.877.347h-4.968c-.325 0-.601-.116-.828-.347-.227-.23-.341-.528-.341-.89V42.27l-6.185 11.78a2.955 2.955 0 0 1-.634.793c-.259.23-.6.346-1.022.346h-2.29c-.422 0-.763-.115-1.022-.346a2.955 2.955 0 0 1-.634-.793l-6.185-11.78v19.997c0 .363-.114.66-.341.891a1.12 1.12 0 0 1-.828.347h-4.968ZM193.525 54.1a5.81 5.81 0 0 1-2.971-.792 6.204 6.204 0 0 1-2.143-2.178 5.96 5.96 0 0 1-.78-2.97c0-1.122.26-2.128.78-3.02a6.34 6.34 0 0 1 2.143-2.128 5.55 5.55 0 0 1 2.971-.842c1.104 0 2.094.281 2.971.842a5.925 5.925 0 0 1 2.094 2.129c.552.89.828 1.897.828 3.019a5.693 5.693 0 0 1-.828 2.97 5.813 5.813 0 0 1-2.094 2.178c-.877.528-1.867.792-2.971.792ZM210.722 63.505c-.52 0-.942-.149-1.266-.446a1.917 1.917 0 0 1-.536-1.088l-5.553-31.73a.45.45 0 0 1-.048-.198v-.148c0-.264.097-.495.292-.694a.916.916 0 0 1 .73-.346h5.115c.844 0 1.315.346 1.412 1.04l3.653 20.938 3.945-13.018c.098-.264.26-.545.487-.842.228-.297.601-.445 1.12-.445h3.069c.519 0 .893.148 1.12.445.228.297.374.578.439.842l3.993 12.968 3.605-20.889c.097-.692.584-1.039 1.461-1.039h5.114c.292 0 .536.116.731.346a.96.96 0 0 1 .292.694v.148a.439.439 0 0 1-.049.198l-5.552 31.73c-.065.429-.26.792-.585 1.089-.292.296-.698.445-1.217.445h-3.946c-.519 0-.925-.132-1.217-.396-.26-.297-.439-.594-.536-.891l-5.212-15.345-5.162 15.345c-.098.297-.293.594-.585.891-.26.264-.666.396-1.218.396h-3.896ZM246.484 63.505c-.357 0-.649-.116-.877-.347-.227-.23-.341-.528-.341-.89V30.093c0-.363.114-.66.341-.892.228-.23.52-.346.877-.346h22.064c.357 0 .649.116.876.346.228.232.341.529.341.892v3.96c0 .33-.113.61-.341.841-.227.231-.519.346-.876.346h-15.781v7.772h14.709c.357 0 .65.115.877.346.227.232.341.529.341.892v3.663c0 .33-.114.61-.341.841-.227.231-.52.346-.877.346h-14.709v8.02h16.17c.358 0 .65.115.877.346.227.231.341.528.341.891v3.91c0 .363-.114.66-.341.891-.227.231-.519.347-.877.347h-22.453ZM277.163 63.505c-.357 0-.649-.116-.877-.347-.227-.23-.341-.528-.341-.89V30.093c0-.363.114-.66.341-.892.228-.23.52-.346.877-.346h14.466c2.695 0 4.903.396 6.624 1.188 1.721.792 2.987 1.914 3.799 3.366.844 1.452 1.266 3.151 1.266 5.099 0 1.22-.227 2.293-.682 3.217-.422.924-.958 1.683-1.607 2.277-.617.594-1.218 1.04-1.802 1.337 1.266.593 2.37 1.584 3.312 2.97.974 1.352 1.461 2.97 1.461 4.85 0 2.08-.455 3.895-1.364 5.446-.909 1.55-2.256 2.755-4.042 3.613-1.786.858-3.962 1.287-6.527 1.287h-14.904Zm6.527-5.791h7.452c1.591 0 2.792-.446 3.604-1.337.812-.924 1.218-2.013 1.218-3.267 0-1.287-.423-2.36-1.267-3.218-.812-.89-1.997-1.336-3.555-1.336h-7.452v9.158Zm0-14.85h7.013c1.526 0 2.663-.38 3.41-1.139.779-.792 1.169-1.799 1.169-3.02 0-1.22-.39-2.194-1.169-2.92-.747-.759-1.884-1.138-3.41-1.138h-7.013v8.217Z" fill="#fff"/></svg>