<svg width="194" height="64" fill="none" xmlns="http://www.w3.org/2000/svg"><path d="M99.206 46.714c-2.927 0-5.615-.687-8.064-2.061a15.436 15.436 0 0 1-5.824-5.69c-1.433-2.449-2.15-5.211-2.15-8.288 0-3.046.717-5.779 2.15-8.198 1.434-2.45 3.375-4.36 5.824-5.735 2.45-1.373 5.138-2.06 8.064-2.06 2.957 0 5.645.687 8.064 2.06 2.45 1.374 4.376 3.286 5.78 5.735 1.433 2.42 2.15 5.152 2.15 8.198 0 3.077-.717 5.84-2.15 8.288a15.106 15.106 0 0 1-5.78 5.69c-2.449 1.374-5.137 2.06-8.064 2.06Zm0-5.6c1.882 0 3.54-.418 4.973-1.255 1.434-.866 2.554-2.09 3.36-3.673.807-1.583 1.21-3.42 1.21-5.51 0-2.091-.403-3.913-1.21-5.466-.806-1.583-1.926-2.793-3.36-3.63-1.433-.835-3.091-1.253-4.973-1.253-1.881 0-3.554.417-5.017 1.254-1.434.836-2.554 2.046-3.36 3.629-.807 1.553-1.21 3.374-1.21 5.465 0 2.091.403 3.928 1.21 5.51.806 1.584 1.926 2.808 3.36 3.674 1.463.837 3.136 1.255 5.017 1.255Zm26.932-27.866V46.4h-6.272V13.248h6.272Zm12.469 0V46.4h-6.272V13.248h6.272Zm9.377 5.376c-1.105 0-2.03-.343-2.777-1.03-.717-.717-1.075-1.598-1.075-2.644 0-1.045.358-1.911 1.075-2.598.747-.717 1.672-1.075 2.777-1.075 1.106 0 2.016.358 2.733 1.075.747.687 1.12 1.553 1.12 2.598 0 1.046-.373 1.927-1.12 2.644-.717.686-1.627 1.03-2.733 1.03Zm3.092 2.957V46.4h-6.272V21.58h6.272Zm29.268 11.872c0 .896-.059 1.702-.179 2.42h-18.144c.15 1.791.777 3.195 1.881 4.21 1.106 1.016 2.464 1.523 4.077 1.523 2.33 0 3.987-1 4.973-3.001h6.765c-.717 2.39-2.09 4.36-4.122 5.914-2.03 1.523-4.525 2.284-7.481 2.284-2.389 0-4.54-.522-6.452-1.568-1.881-1.075-3.359-2.583-4.434-4.524-1.046-1.942-1.568-4.182-1.568-6.72 0-2.569.522-4.824 1.568-6.765 1.045-1.942 2.508-3.435 4.39-4.48 1.881-1.046 4.048-1.568 6.496-1.568 2.36 0 4.465.507 6.316 1.523a10.498 10.498 0 0 1 4.346 4.346c1.046 1.851 1.568 3.987 1.568 6.406Zm-6.496-1.792c-.029-1.613-.611-2.897-1.747-3.853-1.135-.985-2.523-1.478-4.167-1.478-1.552 0-2.867.478-3.942 1.433-1.045.926-1.686 2.225-1.926 3.898h11.782Z" fill="#000"/><path d="M187.701 46.714c-1.136 0-2.077-.344-2.823-1.03-.716-.717-1.075-1.599-1.075-2.644 0-1.045.359-1.911 1.075-2.598.746-.717 1.687-1.075 2.823-1.075 1.104 0 2.016.358 2.733 1.075.716.687 1.075 1.553 1.075 2.598s-.359 1.927-1.075 2.643c-.717.687-1.629 1.03-2.733 1.03Z" fill="#5956E9"/><path d="M45.714 0H18.286C8.186 0 0 8.187 0 18.286v27.428C0 55.814 8.187 64 18.286 64h27.428C55.814 64 64 55.813 64 45.714V18.286C64 8.186 55.813 0 45.714 0Z" fill="#fff"/><path d="M20.572 29.714a9.143 9.143 0 1 0 0-18.286 9.143 9.143 0 0 0 0 18.286Z" fill="#5956E9"/><path d="M20.571 52.572a9.143 9.143 0 1 0 0-18.286 9.143 9.143 0 0 0 0 18.286ZM43.428 29.714a9.143 9.143 0 1 0 0-18.285 9.143 9.143 0 0 0 0 18.285Z" fill="#FAB8C4"/><path d="M43.428 52.572a9.143 9.143 0 1 0 0-18.286 9.143 9.143 0 0 0 0 18.286Z" fill="#5956E9"/></svg>