<svg version="1.1" id="Logos" xmlns="http://www.w3.org/2000/svg" x="0" y="0" viewBox="0 0 224 276" style="enable-background:new 0 0 224 276" xml:space="preserve"><style>.st0{fill:#fff}</style><g id="Tête"><path class="st0" d="M60 88c-11.5 0-18.6-4.1-20.4-5.3-3.7-2.5-4.7-7.4-2.2-11.1 2.5-3.7 7.4-4.7 11.1-2.2.1.1 4.1 2.6 11.5 2.6 3 0 8.6-.7 11.6-2.7 3.7-2.5 8.6-1.5 11.1 2.2s1.5 8.6-2.2 11.1C73 87.6 62.9 88 60 88zM112 76c-4.4 0-8-3.6-8-8V56c0-4.4 3.6-8 8-8s8 3.6 8 8v12c0 4.4-3.6 8-8 8zM164 88c-2.9 0-13-.4-20.4-5.3-3.7-2.5-4.7-7.4-2.2-11.1 2.4-3.7 7.4-4.7 11.1-2.2 2.9 1.9 8.5 2.7 11.6 2.7 7.4 0 11.4-2.5 11.6-2.7 3.7-2.4 8.7-1.4 11.1 2.3s1.5 8.6-2.2 11c-2 1.2-9.1 5.3-20.6 5.3zM72 56c-4.4 0-8-3.6-8-8v-8c0-4.4 3.6-8 8-8s8 3.6 8 8v8c0 4.4-3.6 8-8 8zM48 56c-4.4 0-8-3.6-8-8v-8c0-4.4 3.6-8 8-8s8 3.6 8 8v8c0 4.4-3.6 8-8 8zM26.9 64c-1.4 0-2.7-.3-4-1.1l-6.9-4c-3.8-2.2-5.1-7.1-2.9-10.9 2.2-3.8 7.1-5.1 10.9-2.9l6.9 4c3.8 2.2 5.1 7.1 2.9 10.9-1.4 2.6-4.1 4-6.9 4zM152 56c-4.4 0-8-3.6-8-8v-8c0-4.4 3.6-8 8-8s8 3.6 8 8v8c0 4.4-3.6 8-8 8zM176 56c-4.4 0-8-3.6-8-8v-8c0-4.4 3.6-8 8-8s8 3.6 8 8v8c0 4.4-3.6 8-8 8zM197.1 64c-2.8 0-5.5-1.4-6.9-4-2.2-3.8-.9-8.7 2.9-10.9l6.9-4c3.8-2.2 8.7-.9 10.9 2.9 2.2 3.8.9 8.7-2.9 10.9l-6.9 4c-1.3.8-2.7 1.1-4 1.1z"/><path class="st0" d="M8 36c-3.3 0-6.5-2.1-7.6-5.5-1.4-4.2.9-8.7 5.1-10.1l60-20c2.7-.9 5.7-.3 7.8 1.6.7.6 16.3 14 38.7 14 4.4 0 8 3.6 8 8s-3.6 8-8 8c-21.8 0-38.4-9.9-45.5-15.1l-56 18.7c-.8.3-1.7.4-2.5.4z"/><path class="st0" d="M216 36c-.8 0-1.7-.1-2.5-.4L157.6 17c-7.2 5.1-23.8 15-45.6 15-4.4 0-8-3.6-8-8s3.6-8 8-8c22.4 0 38.1-13.5 38.7-14 2.1-1.9 5.1-2.5 7.8-1.6l60 20c4.2 1.4 6.5 5.9 5.1 10.1-1.1 3.4-4.2 5.5-7.6 5.5zM112 80c-4.4 0-8-3.6-8-8V52c0-4.4 3.6-8 8-8s8 3.6 8 8v20c0 4.4-3.6 8-8 8zM36 108c-1.5 0-3.1-.4-4.4-1.3-3.7-2.5-6.5-4-9.5-5.7-3.1-1.7-6.3-3.5-10.5-6.3-3.7-2.4-4.7-7.4-2.2-11.1 2.4-3.7 7.4-4.7 11.1-2.2 3.7 2.5 6.5 4 9.5 5.7 3.1 1.7 6.3 3.5 10.5 6.3 3.7 2.4 4.7 7.4 2.2 11.1-1.6 2.2-4.1 3.5-6.7 3.5z"/><path class="st0" d="M112 200c-1.1 0-2.3-.2-3.4-.7-8.8-4.1-16.7-8.2-24.3-12.2-7.5-3.9-15.2-7.9-23.7-11.8-3.8-1.7-5.6-6.1-4.2-10 .6-1.9 2.6-16.1-4.1-33.9-3.9-10.1-11.2-18.8-20.5-24.5-3.7-2.2-5-7-2.8-10.8 2.1-3.8 6.9-5.2 10.7-3.1 4.4 2.3 16.1 7.3 30.1 3.4 7.9-2.3 14.8-6.9 20-13.3 2.3-2.9 6.4-3.8 9.7-2.2 3.3 1.6 5.1 5.3 4.3 8.9l-6.6 29.9 14.8 7.4 14.8-7.4-6.6-29.9c-.8-3.6 1-7.3 4.3-8.9 3.3-1.6 7.4-.7 9.7 2.2 5.2 6.4 12.1 11 20 13.4 13.9 4 25.6-1.1 30-3.4 3.8-2 8.6-.6 10.7 3.1 2.1 3.8.9 8.6-2.8 10.8-9.3 5.6-16.6 14.3-20.5 24.5-6.7 17.8-4.8 32-4.1 33.9 1.4 3.9-.4 8.3-4.2 10-8.5 3.9-16.2 7.9-23.7 11.8-7.6 4-15.5 8.1-24.3 12.2-1 .4-2.2.6-3.3.6zm-39.1-36.6c6.6 3.2 12.8 6.4 18.8 9.5 6.5 3.4 13.1 6.8 20.3 10.3 7.2-3.4 13.8-6.9 20.3-10.3 6-3.1 12.1-6.3 18.8-9.5-.8-8.6-.1-22.5 5.6-37.7 1.6-4.2 3.6-8.2 6-11.9-4.1-.2-8.4-.8-12.9-2.1-3.2-.9-6.2-2.1-9.1-3.5l3.1 14.1c.8 3.6-.9 7.2-4.2 8.9l-24 12c-2.3 1.1-4.9 1.1-7.2 0l-24-12c-3.3-1.6-5-5.3-4.2-8.9l3.1-14.1c-2.9 1.4-5.9 2.6-9.1 3.5-4.5 1.3-8.9 1.9-13 2.1 2.4 3.7 4.4 7.7 6 11.9 5.9 15.2 6.6 29 5.7 37.7z"/><path class="st0" d="M188 108c-2.6 0-5.1-1.3-6.7-3.6-2.5-3.7-1.5-8.6 2.2-11.1 4.3-2.8 7.5-4.6 10.5-6.3 2.9-1.6 5.7-3.2 9.5-5.7 3.7-2.5 8.6-1.5 11.1 2.2s1.5 8.6-2.2 11.1c-4.3 2.8-7.5 4.6-10.5 6.3-2.9 1.6-5.7 3.2-9.5 5.7-1.3 1-2.9 1.4-4.4 1.4zM208 208c-4.4 0-8-3.6-8-8v-88c0-4.4 3.6-8 8-8s8 3.6 8 8v88c0 4.4-3.6 8-8 8zM184 240c-4.4 0-8-3.6-8-8v-96c0-4.4 3.6-8 8-8s8 3.6 8 8v96c0 4.4-3.6 8-8 8zM160 260c-4.4 0-8-3.6-8-8v-60c0-4.4 3.6-8 8-8s8 3.6 8 8v60c0 4.4-3.6 8-8 8zM136 272c-4.4 0-8-3.6-8-8v-56c0-4.4 3.6-8 8-8s8 3.6 8 8v56c0 4.4-3.6 8-8 8zM112 276c-4.4 0-8-3.6-8-8v-52c0-4.4 3.6-8 8-8s8 3.6 8 8v52c0 4.4-3.6 8-8 8zM88 272c-4.4 0-8-3.6-8-8v-56c0-4.4 3.6-8 8-8s8 3.6 8 8v56c0 4.4-3.6 8-8 8zM64 260c-4.4 0-8-3.6-8-8v-60c0-4.4 3.6-8 8-8s8 3.6 8 8v60c0 4.4-3.6 8-8 8zM40 240c-4.4 0-8-3.6-8-8v-96c0-4.4 3.6-8 8-8s8 3.6 8 8v96c0 4.4-3.6 8-8 8zM16 208c-4.4 0-8-3.6-8-8v-88c0-4.4 3.6-8 8-8s8 3.6 8 8v88c0 4.4-3.6 8-8 8zM112 168c-4.6 0-9-.2-12.3-.6-2.9-.4-11.7-1.5-11.7-9.4s8.8-9 11.7-9.4c3.3-.4 7.7-.6 12.3-.6s9 .2 12.3.6c2.9.4 11.7 1.5 11.7 9.4s-8.8 9-11.7 9.4c-3.3.4-7.7.6-12.3.6zm12.5-3.1z"/></g></svg>