<svg version="1.1" id="Calque_1" xmlns="http://www.w3.org/2000/svg" x="0" y="0" viewBox="0 0 1360 288" style="enable-background:new 0 0 1360 288" xml:space="preserve"><style>.st0{fill:#1b7e65}.st1{fill:#f83}</style><path class="st0" d="M380.1 218.1c-8.1 0-12.1-4.2-12.1-12.5V95.1c0-8.2 4.1-12.3 12.3-12.3h45.8c14.7 0 26 3.7 34 11s12 17.6 12 30.8-4 23.5-12 30.9-19.3 11.1-34 11.1h-33.8v39.1c0 8.2-4.1 12.4-12.2 12.4zm12.2-70.8h30c17.5 0 26.2-7.6 26.2-22.8 0-15.1-8.7-22.6-26.2-22.6h-30v45.4zM499.8 218.1c-8.1 0-12.1-4-12.1-12.1v-71.8c0-8 3.9-12 11.6-12 7.7 0 11.6 4 11.6 12v5.9c4.6-10.9 14.3-17 29.2-18.2 5.4-.6 8.5 2.5 9.1 9.3.6 6.7-2.7 10.4-9.9 11.2l-4.2.4c-15.6 1.5-23.4 9.5-23.4 23.9V206c0 8-4 12.1-11.9 12.1zM606.3 218.5c-10.5 0-19.5-2-27.2-5.9-7.4-3.7-13.5-9.5-17.6-16.7-4.1-7.2-6.2-15.8-6.2-25.6 0-9.6 2-18 6-25.2 3.8-7.1 9.6-13 16.5-17 7.3-4.2 15.6-6.3 24-6.2 13.2 0 23.6 4.2 31.2 12.5s11.5 19.7 11.5 34.2c0 4.7-3 7-9.1 7h-57.3c1.8 16.6 11.3 24.9 28.5 24.9 3.7 0 7.5-.5 11.1-1.2 4.1-.8 8-2.3 11.7-4.3 3.3-1.9 6.1-2.5 8.3-1.8 2.1.6 3.9 2.1 4.8 4.1 1 2.1 1.1 4.5.4 6.7-.7 2.5-2.5 4.6-5.4 6.4-4.7 2.9-9.9 5-15.3 6.2-5.1 1.1-10.5 1.8-15.9 1.9zm-3.4-80.5c-7 0-12.6 2.2-16.9 6.5s-6.9 10.1-7.8 17.5h46.7c-.5-7.7-2.6-13.6-6.4-17.8-3.7-4.2-8.9-6.2-15.6-6.2zm8.1-27.8c-1 1.6-2.7 2.7-4.6 3-1.8.2-3.6-.1-5.1-1-1.6-.8-2.8-2.2-3.5-3.8-.7-1.8-.5-3.8.5-5.5l14.4-28.3c1.4-2.9 3.4-4.6 5.9-5 2.5-.4 5.1 0 7.3 1.2 2.2 1.1 4 3.1 4.8 5.4.9 2.3.4 4.8-1.3 7.3L611 110.2zM699.5 218.1c-6.3 0-11-3.4-14-10.1l-30.2-70c-1.8-4.2-1.8-7.8-.1-11s5.2-4.7 10.3-4.8c2.5-.1 4.9.6 7 2 1.8 1.3 3.4 3.8 4.8 7.5l22.8 57 23.5-57.1c1.4-3.5 3-6 4.8-7.3 2.2-1.4 4.9-2.1 7.5-2 4 0 6.9 1.6 8.5 4.8 1.6 3.2 1.6 6.8-.2 10.8L713.5 208c-2.7 6.7-7.4 10.1-14 10.1zM802.4 218.5c-9.6 0-18-2-25.1-5.9-7-3.9-12.8-9.7-16.5-16.8-3.9-7.3-5.9-15.8-5.9-25.7 0-9.9 2-18.4 5.9-25.6 3.8-7.1 9.5-12.9 16.5-16.7 7.1-3.9 15.4-5.9 25.1-5.9s18 2 25.1 5.9c7 3.8 12.8 9.6 16.5 16.7 3.9 7.2 5.9 15.8 5.9 25.6 0 9.9-2 18.4-5.9 25.7-3.7 7.1-9.5 12.9-16.5 16.8-7.1 3.9-15.5 5.9-25.1 5.9zm0-18c7.1 0 12.8-2.6 17.1-7.7 4.3-5.1 6.5-12.7 6.5-22.7 0-10.1-2.2-17.7-6.5-22.7s-10-7.5-17.1-7.5c-7.1 0-12.8 2.5-17.1 7.5-4.3 5-6.5 12.6-6.5 22.7 0 10 2.2 17.6 6.5 22.7 4.3 5.1 10 7.6 17.1 7.7zM901.1 218.5c-21.1 0-31.7-11.8-31.7-35.5V93.2c0-8 3.9-12 11.8-12 8 0 12 4 12 12v88.7c0 11.4 4.7 17.1 14.2 17.1 1 0 2 0 2.8-.1s1.8-.2 2.7-.3c1.8-.2 3 .2 3.6 1.4s1 3.6 1 7.3c0 3.2-.6 5.6-1.9 7.4-1.3 1.8-3.4 2.8-6.3 3.2-2.7.4-5.4.6-8.2.6zM1015.2 134.2v45.9c0 25.6-17.8 38.3-42.9 38.3s-42.9-12.8-42.9-38.4v-45.9c0-8 3.9-12 11.8-12 8 0 12 4 12 12v46.3c0 6.6 1.8 11.6 4.8 14.5s8.6 5 14.4 5 11.4-2 14.4-5 4.8-7.9 4.8-14.5v-46.3c0-8 4-12 12-12 7.7.1 11.6 4.1 11.6 12.1zM1082.4 218.5c-24.6 0-36.8-12.1-36.8-36.4v-40.4h-9.9c-6.3 0-9.5-3-9.5-8.9s3.2-8.9 9.5-8.9h9.9v-17.3c0-8 4-12 12-12 7.9 0 11.8 4 11.8 12v17.3h20.1c6.3 0 9.5 3 9.5 8.9 0 6-3.2 8.9-9.5 8.9h-20.1v39.1c0 6.1 1.3 10.6 4 13.7 2.7 3 7 4.6 12.9 4.6 1.9 0 3.8-.2 5.7-.6 1.4-.3 2.9-.6 4.4-.8 1.4-.2 2.8.4 3.8 1.4 1 1.1 1.5 3.3 1.5 6.6 0 2.3-.4 4.6-1.2 6.7-.8 2-2.5 3.4-4.5 4.1-2.1.6-4.3 1.1-6.4 1.4-2.4.3-4.8.5-7.2.6zM1127.1 104.7c-4.4 0-7.9-1.1-10.3-3.3s-3.7-5.3-3.7-9.2 1.2-7.2 3.7-9.3 5.9-3.2 10.3-3.2c9.3 0 14 4.2 14 12.5s-4.7 12.5-14 12.5zm0 113.2c-3.8 0-6.7-1.1-8.7-3.4-2-2.3-3-5.4-3-9.5v-69.7c0-8.6 3.9-12.9 11.8-12.9 8 0 12 4.3 12 12.9V205c0 4.1-1 7.2-3 9.5s-5.1 3.4-9.1 3.4zM1206 218.5c-9.6 0-18-2-25.1-5.9-7-3.9-12.8-9.7-16.5-16.8-3.9-7.3-5.9-15.8-5.9-25.7 0-9.9 2-18.4 5.9-25.6 3.8-7.1 9.5-12.9 16.6-16.7 7.1-3.9 15.4-5.9 25.1-5.9s18 2 25.1 5.9c7 3.8 12.7 9.7 16.5 16.7 3.9 7.2 5.9 15.8 5.9 25.6 0 9.9-2 18.4-5.9 25.7-3.7 7.1-9.5 12.9-16.5 16.8-7.2 3.9-15.6 5.9-25.2 5.9zm0-18c7.1 0 12.8-2.6 17.1-7.7 4.3-5.1 6.5-12.7 6.5-22.7 0-10.1-2.2-17.7-6.5-22.7s-10-7.5-17.1-7.5c-7.1 0-12.8 2.5-17.1 7.5s-6.5 12.6-6.5 22.7c0 10 2.2 17.6 6.5 22.7 4.3 5.1 10 7.6 17.1 7.7zM1273 206.1v-45.9c0-25.6 18-38.4 43.5-38.4s43.5 12.8 43.5 38.4v45.9c0 8-4 12-11.9 12-8.1 0-12.1-4-12.1-12v-46.3c0-6.6-1.9-11.6-4.8-14.5s-8.7-5-14.6-5-11.6 2-14.6 5-4.8 7.9-4.8 14.5v46.3c0 8-4 12-12.1 12s-12.1-4-12.1-12z"/><path class="st1" d="M276 128c-6.6 0-12-5.4-12-12V84c0-6.6-5.4-12-12-12h-32c-6.6 0-12-5.4-12-12s5.4-12 12-12h32c19.9 0 36 16.1 36 36v32c0 6.6-5.4 12-12 12zM68 288c-6.6 0-12-5.4-12-12v-32c0-6.6-5.4-12-12-12H12c-6.6 0-12-5.4-12-12s5.4-12 12-12h32c19.9 0 36 16.1 36 36v32c0 6.6-5.4 12-12 12z"/><path class="st0" d="M96.3 103.6c-4.1 3.6-7.7 7.6-10.8 12-2.6 3.6-4.8 7.4-6.6 11.5-2.2 4.9-3.9 10-5.1 15.2-1.1 5.3-1.7 10.7-1.8 16-.1 20.8 8.6 41.3 24.3 55.1 16.2 14.1 36.9 21.8 58.4 21.8 10.3 0 20.6-1.9 30.1-5.7 5.2-2.1 10.3-4.6 15-7.6 4.7-3 9.1-6.5 13.1-10.3 4-3.9 7.6-8.1 10.8-12.6 2.8-3.7 5.2-7.7 7.2-11.9 4.9-9.9 7.9-20.7 8.8-31.7.3-5.7.1-11.5-.9-17.2-1-6.1-2.7-12-5.3-17.6-4.8-11.2-13.3-20.5-24-26.4-11.3-6-25-8.2-37.3-4.1-11.8 3.9-21.2 12.2-27.8 22.6-6.9 11-9.5 23.9-10.4 36.6-.8 11.8-.2 23.8 0 35.6.3 12.6.6 25.1 1.3 37.6.6 12.3 1 24.5 1.3 36.8l.3 16.6c.1 3.2 1.3 6.2 3.5 8.5 4.7 4.7 12.3 4.7 17 0 2.2-2.3 3.5-5.3 3.5-8.5-.3-16.6-.6-33.3-1.4-49.9-.6-13.1-1.1-26.1-1.4-39.2-.1-7.1-.3-14.1-.4-21.2-.2-7.6.1-15.3 1-22.8l-.4 3.2c.7-5.8 2.2-11.5 4.4-16.9l-1.2 2.9c1.7-4 3.8-7.7 6.4-11.1l-1.9 2.4c2.2-2.9 4.8-5.5 7.7-7.7l-2.4 1.9c2.4-1.8 5-3.4 7.8-4.6l-2.9 1.2c2.7-1.1 5.4-1.9 8.3-2.3l-3.2.4c2.9-.4 5.9-.4 8.9 0l-3.2-.4c3.5.5 6.9 1.4 10.1 2.8l-2.9-1.2c3.2 1.4 6.3 3.2 9.1 5.3l-2.4-1.9c2.8 2.2 5.3 4.7 7.5 7.5l-1.9-2.4c2.6 3.4 4.8 7.2 6.5 11.2l-1.2-2.9c2 4.7 3.3 9.7 4 14.8l-.4-3.2c.8 5.8.8 11.6 0 17.4l.4-3.2c-.9 6.2-2.6 12.2-5 18l1.2-2.9c-2.6 6-5.9 11.6-9.9 16.8l1.9-2.4c-4.1 5.3-8.8 10.1-14.1 14.2l2.4-1.9c-5.1 3.9-10.6 7.1-16.4 9.6l2.9-1.2c-5.7 2.4-11.6 4-17.7 4.8l3.2-.4c-6.6.9-13.4.9-20 0l3.2.4c-6.8-.9-13.5-2.7-19.9-5.4l2.9 1.2c-5.9-2.5-11.4-5.7-16.4-9.5l2.4 1.9c-4.3-3.4-8.2-7.2-11.6-11.5l1.9 2.4c-3.1-4-5.6-8.4-7.6-13.1l1.2 2.9c-2.1-5-3.5-10.1-4.2-15.5l.4 3.2c-.8-5.8-.8-11.6 0-17.4l-.4 3.2c.8-5.6 2.2-11.1 4.4-16.4l-1.2 2.9c2-4.7 4.6-9.2 7.7-13.2l-1.9 2.4c2.4-3.1 5.1-5.9 8.1-8.4 2.2-1.9 3.5-5.7 3.5-8.5 0-6.6-5.4-12-12-12l-3.2.4c-2 .4-3.8 1.5-5.3 3zM152 0c-22.1 0-40 17.9-40 40s17.9 40 40 40 40-17.9 40-40-17.9-40-40-40zm0 56c-8.8 0-16-7.2-16-16s7.2-16 16-16 16 7.2 16 16-7.2 16-16 16z"/></svg>