<svg width="64" height="65" viewBox="0 0 64 65" fill="none" xmlns="http://www.w3.org/2000/svg">
<g clip-path="url(#clip0_502_64)">
<path d="M30.0125 1.027C31.1375 0.324374 32.75 0.324374 33.9875 1.027L55.45 13.3L55.8875 13.5V13.6125L61.9875 17.025C63.5625 17.925 64.325 19.775 63.8625 21.525C63.4 23.275 61.8125 24.5 59.8875 24.5H3.88749C2.18623 24.5 0.59936 23.275 0.133859 21.525C-0.331641 19.775 0.440485 17.925 2.01498 17.025L7.88749 13.6125V13.5L8.54624 13.3L30.0125 1.027ZM7.99999 28.5H16V52.5H21V28.5H29V52.5H35V28.5H43V52.5H48V28.5H56V53.0375C56.075 53.075 56.15 53.0125 56.225 53.175L62.225 57.175C63.6875 58.15 64.3375 59.975 63.825 61.6625C63.3125 63.35 61.7625 64.5 60 64.5H3.99998C2.23748 64.5 0.682485 63.35 0.171609 61.6625C-0.339141 59.975 0.31461 58.15 1.78123 57.175L7.78124 53.175C7.85249 53.0125 7.92624 53.075 7.99999 53.0375V28.5Z" fill="url(#paint0_linear_502_64)"/>
</g>
<defs>
<linearGradient id="paint0_linear_502_64" x1="-0.00050354" y1="32.5" x2="63.9984" y2="32.5" gradientUnits="userSpaceOnUse">
<stop stop-color="#000024"/>
<stop offset="1" stop-color="#000048"/>
</linearGradient>
<clipPath id="clip0_502_64">
<rect width="64" height="64" fill="white" transform="translate(0 0.5)"/>
</clipPath>
</defs>
</svg>
