<svg width="16" height="17" viewBox="0 0 16 17" fill="none" xmlns="http://www.w3.org/2000/svg">
<path fill-rule="evenodd" clip-rule="evenodd" d="M8 3.5C5.86667 3.5 4.53333 4.56667 4 6.7C4.8 5.63333 5.73333 5.23333 6.8 5.5C7.40859 5.652 7.84356 6.09378 8.32504 6.58237C9.10933 7.37852 10.0172 8.3 12 8.3C14.1333 8.3 15.4667 7.23333 16 5.1C15.2 6.16667 14.2667 6.56667 13.2 6.3C12.5914 6.148 12.1564 5.70622 11.675 5.21763C10.8907 4.42148 9.98281 3.5 8 3.5ZM4 8.3C1.86667 8.3 0.533333 9.36667 0 11.5C0.8 10.4333 1.73333 10.0333 2.8 10.3C3.40859 10.4523 3.84356 10.8938 4.32504 11.3824C5.10933 12.1785 6.01719 13.1 8 13.1C10.1333 13.1 11.4667 12.0333 12 9.9C11.2 10.9667 10.2667 11.3667 9.2 11.1C8.59141 10.948 8.15644 10.5062 7.67496 10.0176C6.89067 9.22148 5.98281 8.3 4 8.3Z" fill="#000024"/>
</svg>
