<svg width="194" height="64" viewBox="0 0 194 64" fill="none" xmlns="http://www.w3.org/2000/svg">
<path d="M99.2064 46.7136C96.2795 46.7136 93.5915 46.0268 91.1424 44.6529C88.6933 43.2789 86.752 41.3825 85.3184 38.9633C83.8848 36.5141 83.168 33.7516 83.168 30.6753C83.168 27.6289 83.8848 24.8961 85.3184 22.4769C86.752 20.0277 88.6933 18.1164 91.1424 16.7425C93.5915 15.3686 96.2795 14.6817 99.2064 14.6817C102.163 14.6817 104.851 15.3686 107.27 16.7425C109.72 18.1164 111.646 20.0277 113.05 22.4769C114.483 24.8961 115.2 27.6289 115.2 30.6753C115.2 33.7516 114.483 36.5141 113.05 38.9633C111.646 41.3825 109.72 43.2789 107.27 44.6529C104.821 46.0268 102.133 46.7136 99.2064 46.7136ZM99.2064 41.1137C101.088 41.1137 102.746 40.6956 104.179 39.8593C105.613 38.9932 106.733 37.7685 107.539 36.1857C108.346 34.6028 108.749 32.766 108.749 30.6753C108.749 28.5845 108.346 26.7628 107.539 25.2097C106.733 23.6268 105.613 22.4172 104.179 21.5809C102.746 20.7445 101.088 20.3265 99.2064 20.3265C97.3248 20.3265 95.6523 20.7445 94.1888 21.5809C92.7552 22.4172 91.6352 23.6268 90.8288 25.2097C90.0224 26.7628 89.6192 28.5845 89.6192 30.6753C89.6192 32.766 90.0224 34.6028 90.8288 36.1857C91.6352 37.7685 92.7552 38.9932 94.1888 39.8593C95.6523 40.6956 97.3248 41.1137 99.2064 41.1137ZM126.138 13.2481V46.4001H119.866V13.2481H126.138ZM138.607 13.2481V46.4001H132.335V13.2481H138.607ZM147.984 18.6241C146.879 18.6241 145.954 18.2805 145.207 17.5937C144.49 16.8769 144.132 15.9958 144.132 14.9505C144.132 13.9051 144.49 13.039 145.207 12.3521C145.954 11.6353 146.879 11.2769 147.984 11.2769C149.09 11.2769 150 11.6353 150.717 12.3521C151.464 13.039 151.837 13.9051 151.837 14.9505C151.837 15.9958 151.464 16.8769 150.717 17.5937C150 18.2805 149.09 18.6241 147.984 18.6241ZM151.076 21.5809V46.4001H144.804V21.5809H151.076ZM180.344 33.4529C180.344 34.3489 180.285 35.1553 180.165 35.8721H162.021C162.171 37.6641 162.798 39.0677 163.902 40.0833C165.008 41.0988 166.366 41.6065 167.979 41.6065C170.309 41.6065 171.966 40.606 172.952 38.6049H179.717C179 40.9941 177.627 42.9653 175.595 44.5185C173.565 46.0417 171.07 46.8033 168.114 46.8033C165.725 46.8033 163.574 46.2805 161.662 45.2353C159.781 44.1601 158.303 42.6517 157.228 40.7105C156.182 38.7692 155.66 36.5292 155.66 33.9905C155.66 31.422 156.182 29.1669 157.228 27.2257C158.273 25.2844 159.736 23.7909 161.618 22.7457C163.499 21.7004 165.666 21.1777 168.114 21.1777C170.474 21.1777 172.579 21.6853 174.43 22.7009C176.312 23.7164 177.762 25.1649 178.776 27.0465C179.822 28.8981 180.344 31.0337 180.344 33.4529ZM173.848 31.6609C173.819 30.0481 173.237 28.7637 172.101 27.8081C170.966 26.8225 169.578 26.3297 167.934 26.3297C166.382 26.3297 165.067 26.8076 163.992 27.7633C162.947 28.6892 162.306 29.9884 162.066 31.6609H173.848Z" fill="black"/>
<path d="M187.701 46.7137C186.565 46.7137 185.624 46.3701 184.878 45.6833C184.162 44.9665 183.803 44.0853 183.803 43.0401C183.803 41.9948 184.162 41.1285 184.878 40.4417C185.624 39.7249 186.565 39.3665 187.701 39.3665C188.805 39.3665 189.717 39.7249 190.434 40.4417C191.15 41.1285 191.509 41.9948 191.509 43.0401C191.509 44.0853 191.15 44.9665 190.434 45.6833C189.717 46.3701 188.805 46.7137 187.701 46.7137Z" fill="#5956E9"/>
<path d="M45.7142 0H18.2858C8.18681 0 0 8.18681 0 18.2858V45.7142C0 55.8132 8.18681 64 18.2858 64H45.7142C55.8132 64 64 55.8132 64 45.7142V18.2858C64 8.18681 55.8132 0 45.7142 0Z" fill="white"/>
<path d="M20.5715 29.7142C25.621 29.7142 29.7144 25.6208 29.7144 20.5713C29.7144 15.5219 25.621 11.4285 20.5715 11.4285C15.522 11.4285 11.4286 15.5219 11.4286 20.5713C11.4286 25.6208 15.522 29.7142 20.5715 29.7142Z" fill="#5956E9"/>
<path d="M20.5714 52.5716C25.6208 52.5716 29.7142 48.4782 29.7142 43.4288C29.7142 38.3793 25.6208 34.2859 20.5714 34.2859C15.5219 34.2859 11.4285 38.3793 11.4285 43.4288C11.4285 48.4782 15.5219 52.5716 20.5714 52.5716Z" fill="#FAB8C4"/>
<path d="M43.4285 29.7144C48.4779 29.7144 52.5713 25.621 52.5713 20.5716C52.5713 15.5221 48.4779 11.4287 43.4285 11.4287C38.379 11.4287 34.2856 15.5221 34.2856 20.5716C34.2856 25.621 38.379 29.7144 43.4285 29.7144Z" fill="#FAB8C4"/>
<path d="M43.4285 52.5716C48.4779 52.5716 52.5713 48.4782 52.5713 43.4288C52.5713 38.3793 48.4779 34.2859 43.4285 34.2859C38.379 34.2859 34.2856 38.3793 34.2856 43.4288C34.2856 48.4782 38.379 52.5716 43.4285 52.5716Z" fill="#5956E9"/>
</svg>
