<svg width="32" height="33" viewBox="0 0 32 33" fill="none" xmlns="http://www.w3.org/2000/svg">
<g clip-path="url(#clip0)">
<path d="M31.9999 16.6987C31.9999 15.589 31.9099 14.4734 31.718 13.3817H16.3208V19.6677H25.138C24.7722 21.6951 23.5965 23.4886 21.8751 24.6282V28.7069H27.1354C30.2245 25.8638 31.9999 21.6651 31.9999 16.6987Z" fill="#4285F4"/>
<path d="M16.3208 32.6477C20.7235 32.6477 24.4363 31.2021 27.1415 28.7069L21.8811 24.6282C20.4176 25.6239 18.5282 26.1877 16.3268 26.1877C12.0682 26.1877 8.4573 23.3146 7.1617 19.4518H1.7334V23.6565C4.50453 29.1688 10.1488 32.6477 16.3208 32.6477Z" fill="#34A853"/>
<path d="M7.15583 19.4518C6.47205 17.4245 6.47205 15.2292 7.15583 13.2018V8.9971H1.73353C-0.581749 13.6097 -0.581749 19.044 1.73353 23.6565L7.15583 19.4518Z" fill="#FFDC60"/>
<path d="M16.3208 6.45989C18.6481 6.4239 20.8974 7.29963 22.5829 8.90713L27.2434 4.24658C24.2924 1.47545 20.3756 -0.0480751 16.3208 -9.01371e-05C10.1488 -9.01371e-05 4.50453 3.47882 1.7334 8.9971L7.1557 13.2018C8.4453 9.33299 12.0622 6.45989 16.3208 6.45989Z" fill="#EA4335"/>
</g>
<defs>
<clipPath id="clip0">
<rect width="32" height="32.6478" fill="white"/>
</clipPath>
</defs>
</svg>
