<svg width="24" height="24" viewBox="0 0 24 24" fill="none" xmlns="http://www.w3.org/2000/svg">
<path fill-rule="evenodd" clip-rule="evenodd" d="M11.739 3.5C7.18873 3.5 3.5 7.18873 3.5 11.739C3.5 16.2893 7.18873 19.978 11.739 19.978C16.2893 19.978 19.978 16.2893 19.978 11.739C19.978 7.18873 16.2893 3.5 11.739 3.5ZM2 11.739C2 6.3603 6.3603 2 11.739 2C17.1177 2 21.478 6.3603 21.478 11.739C21.478 17.1177 17.1177 21.478 11.739 21.478C6.3603 21.478 2 17.1177 2 11.739Z" fill="black"/>
<path fill-rule="evenodd" clip-rule="evenodd" d="M17.459 17.9273C17.7515 17.6341 18.2264 17.6335 18.5197 17.926L22.0437 21.441C22.3369 21.7335 22.3375 22.2084 22.045 22.5017C21.7525 22.7949 21.2776 22.7955 20.9843 22.503L17.4603 18.988C17.1671 18.6955 17.1665 18.2206 17.459 17.9273Z" fill="black"/>
</svg>
