<svg width="402" height="202" viewBox="0 0 402 202" fill="none" xmlns="http://www.w3.org/2000/svg">
<g clip-path="url(#clip0_301_2)">
<path d="M53.1899 68.64V79.1C53.1899 80.5437 53.7628 81.9284 54.7827 82.9502C55.8026 83.972 57.1862 84.5474 58.6299 84.55H68.8599V68.64H53.1899Z" fill="#939598"/>
<path d="M78.6899 84.55H89.2499C90.6936 84.5474 92.0773 83.972 93.0972 82.9502C94.1171 81.9284 94.6899 80.5437 94.6899 79.1V68.64H78.6899V84.55Z" fill="#939598"/>
<path d="M68.8599 42.97H60.4399H58.6299H53.1899V48.42V52.35V58.78H68.8599V42.97Z" fill="#939598"/>
<path d="M94.6899 58.78V48.42V42.97H89.2499H87.4399H78.6899V58.78H94.6899Z" fill="#939598"/>
<path d="M125.55 173.29C119.269 181.329 111.208 187.799 102 192.19L101.79 192.29L101.65 192.1L77.33 159.45C76.9362 158.922 76.4247 158.494 75.8362 158.199C75.2477 157.904 74.5984 157.75 73.94 157.75C73.2816 157.75 72.6323 157.904 72.0438 158.199C71.4553 158.494 70.9438 158.922 70.55 159.45L46.08 192.29L45.87 192.19C36.6694 187.796 28.6146 181.326 22.34 173.29L22.2 173.12L22.33 172.94L73.94 103.69L98.53 136.69L125.68 173.13L125.55 173.29ZM143.65 26H115.65C114.562 26.0529 113.537 26.5221 112.786 27.3106C112.035 28.099 111.616 29.1461 111.616 30.235C111.616 31.3239 112.035 32.371 112.786 33.1594C113.537 33.9479 114.562 34.4171 115.65 34.47H139.44V132.86C139.426 136.812 139.058 140.754 138.34 144.64L138.23 145.28L112.72 111.87C112.326 111.348 111.816 110.925 111.23 110.633C110.644 110.342 109.999 110.19 109.345 110.19C108.691 110.19 108.046 110.342 107.46 110.633C106.874 110.925 106.364 111.348 105.97 111.87L98.3 122.22L77.3 94.07C76.9062 93.5424 76.3947 93.1139 75.8062 92.8188C75.2177 92.5237 74.5684 92.37 73.91 92.37C73.2516 92.37 72.6023 92.5237 72.0138 92.8188C71.4253 93.1139 70.9138 93.5424 70.52 94.07L49.52 122.22L41.86 111.93C41.4667 111.408 40.9576 110.985 40.3728 110.693C39.788 110.402 39.1435 110.25 38.49 110.25C37.8366 110.25 37.192 110.402 36.6072 110.693C36.0224 110.985 35.5133 111.408 35.12 111.93L9.66 145.3L9.55 144.66C8.83184 140.774 8.4637 136.832 8.45 132.88V34.49H32.24C33.3276 34.4371 34.3532 33.9679 35.1042 33.1794C35.8552 32.391 36.2742 31.3439 36.2742 30.255C36.2742 29.1661 35.8552 28.119 35.1042 27.3306C34.3532 26.5421 33.3276 26.0729 32.24 26.02H4.24C3.11548 26.02 2.03702 26.4667 1.24187 27.2619C0.446715 28.057 2.17216e-06 29.1355 2.17216e-06 30.26V132.88C-0.0377202 147.493 4.25818 161.788 12.3446 173.96C20.4309 186.131 31.9447 195.632 45.43 201.26C46.3231 201.743 47.36 201.888 48.3514 201.67C49.3427 201.451 50.2225 200.883 50.83 200.07L73.94 169.07L74.17 169.38L96.93 199.93C97.4775 200.655 98.2408 201.187 99.11 201.45L99.36 201.53C100.292 201.814 101.293 201.761 102.19 201.38C115.733 195.772 127.305 186.269 135.439 174.076C143.574 161.882 147.904 147.548 147.88 132.89V30.26C147.883 29.7024 147.775 29.1497 147.564 28.6336C147.353 28.1175 147.042 27.6482 146.649 27.2525C146.256 26.8568 145.789 26.5424 145.274 26.3275C144.76 26.1126 144.208 26.0013 143.65 26" fill="#10069F"/>
<path d="M95.8399 26H51.9999L50.9999 20.3L51.4599 20.45C53.8862 21.28 56.4357 21.6925 58.9999 21.67C64.9999 21.67 70.2199 19.58 73.7699 15.77L73.9799 15.55L74.1899 15.77C77.7399 19.58 82.9899 21.67 88.9599 21.67C91.4929 21.6888 94.011 21.2832 96.4099 20.47L96.8599 20.32L95.8399 26ZM108.12 4.24C108.111 3.18778 107.71 2.17662 106.996 1.40398C106.282 0.631336 105.305 0.152677 104.257 0.0614663C103.208 -0.0297446 102.164 0.273042 101.327 0.910703C100.49 1.54836 99.9204 2.47512 99.7299 3.51L98.9999 7.79C97.5599 11.13 93.6999 13.2 88.9399 13.2C83.9399 13.2 78.1899 10.85 78.1899 4.2C78.1899 3.07814 77.7443 2.00222 76.951 1.20894C76.1577 0.415661 75.0818 -0.0299988 73.9599 -0.0299988C72.8381 -0.0299988 71.7621 0.415661 70.9689 1.20894C70.1756 2.00222 69.7299 3.07814 69.7299 4.2C69.7299 10.81 63.9399 13.2 58.9799 13.2C54.2199 13.2 50.3599 11.13 48.9199 7.79V7.73L48.1899 3.51C48.0196 2.52384 47.5051 1.63001 46.738 0.987358C45.9708 0.344707 45.0007 -0.00513682 43.9999 1.22003e-06H43.6499C42.5925 0.0858498 41.6067 0.568691 40.8907 1.35151C40.1747 2.13433 39.7814 3.15913 39.7899 4.22C39.7899 4.49 39.7899 4.76 39.7899 5.04C39.9199 6.13 40.5499 9.3 40.6799 9.93L44.3199 30.93C44.4856 31.9128 44.9947 32.8049 45.7564 33.4477C46.5182 34.0904 47.4833 34.442 48.4799 34.44H99.3999C100.387 34.4449 101.344 34.1032 102.104 33.4745C102.864 32.8457 103.379 31.97 103.56 31L107.19 10C107.32 9.38 107.98 6 108.1 4.83C108.1 4.63 108.1 4.44 108.1 4.24" fill="#10069F"/>
<path d="M186.48 34.54H169.71V110.95H186.48V34.54Z" fill="#10069F"/>
<path d="M207.62 78.2V34.54H224.4V77.77C224.4 90.21 230.6 96.65 240.85 96.65C251.1 96.65 257.29 90.43 257.29 78.31V34.54H274.07V77.66C274.07 100.8 261.07 112.15 240.63 112.15C220.19 112.15 207.63 100.69 207.63 78.2" fill="#10069F"/>
<path d="M312.2 50.04H288.99V34.54H352.17V50.04H328.97V110.95H312.2V50.04Z" fill="#10069F"/>
<path d="M169.23 134.3V134.24C169.201 132.732 169.478 131.233 170.044 129.835C170.61 128.437 171.454 127.167 172.524 126.104C173.594 125.04 174.868 124.205 176.27 123.647C177.672 123.09 179.172 122.822 180.68 122.86C182.282 122.78 183.883 123.041 185.376 123.627C186.869 124.214 188.221 125.111 189.34 126.26L186.27 129.81C184.795 128.276 182.777 127.381 180.65 127.32C176.95 127.32 174.28 130.41 174.28 134.18V134.24C174.28 138.01 176.89 141.16 180.65 141.16C183.16 141.16 184.65 140.16 186.42 138.58L189.5 141.69C188.396 142.985 187.012 144.011 185.453 144.692C183.894 145.373 182.2 145.69 180.5 145.62C179.009 145.643 177.529 145.366 176.148 144.804C174.767 144.243 173.513 143.409 172.462 142.353C171.41 141.296 170.582 140.039 170.026 138.655C169.471 137.272 169.2 135.791 169.23 134.3" fill="#10069F"/>
<path d="M193.21 123.24H198.04V131.94H206.95V123.24H211.78V145.24H206.95V136.41H198.04V145.24H193.21V123.24Z" fill="#10069F"/>
<path d="M229.51 136L226.59 128.87L223.68 136H229.51ZM224.43 123H228.88L238.3 145.16H233.24L231.24 140.23H222L220 145.16H215L224.43 123Z" fill="#10069F"/>
<path d="M241.53 123.24H246.74L252.51 132.54L258.29 123.24H263.49V145.24H258.69V130.88L252.51 140.28H252.39L246.27 130.97V145.24H241.53V123.24Z" fill="#10069F"/>
<path d="M278.9 136.16H273.32V141H279.06C281.19 141 282.48 140.25 282.48 138.61V138.55C282.48 137.07 281.38 136.16 278.9 136.16V136.16ZM281.26 129.74C281.26 128.3 280.13 127.48 278.09 127.48H273.32V132.13H277.78C279.91 132.13 281.26 131.44 281.26 129.81V129.74ZM268.61 123.24H278.81C279.851 123.178 280.895 123.323 281.88 123.666C282.865 124.009 283.773 124.544 284.55 125.24C285.047 125.724 285.439 126.307 285.699 126.951C285.959 127.595 286.082 128.286 286.06 128.98V129C286.086 129.986 285.827 130.958 285.314 131.8C284.802 132.643 284.057 133.32 283.17 133.75C285.71 134.75 287.28 136.2 287.28 139.16V139.22C287.28 143.22 284.02 145.22 279.06 145.22H268.61V123.24Z" fill="#10069F"/>
<path d="M301.31 116.57L305.42 118.36L301.15 121.51H297.51L301.31 116.57ZM291.11 123.24H307.68V127.54H295.91V132H306.27V136.3H295.91V140.93H307.83V145.23H291.11V123.24Z" fill="#10069F"/>
<path d="M321.71 133.93C324.06 133.93 325.41 132.67 325.41 130.81V130.75C325.41 128.68 323.97 127.61 321.62 127.61H316.81V133.93H321.71ZM312 123.24H322C323.162 123.166 324.326 123.325 325.426 123.708C326.525 124.091 327.536 124.69 328.4 125.47C329.031 126.136 329.523 126.922 329.847 127.78C330.172 128.639 330.322 129.553 330.29 130.47V130.53C330.363 132.026 329.941 133.505 329.09 134.738C328.239 135.97 327.005 136.888 325.58 137.35L330.94 145.21H325.3L320.59 138.21H316.79V145.21H312V123.24Z" fill="#10069F"/>
<path d="M339.91 136.57L331.47 123.24H337.12L342.36 132.07L347.69 123.24H353.18L344.74 136.47V145.24H339.91V136.57Z" fill="#10069F"/>
<path d="M169.76 166.93V157.76H172.55V166.82C172.55 169.82 174.07 171.34 176.55 171.34C179.03 171.34 180.55 169.87 180.55 166.93V157.76H183.34V166.76C183.34 171.52 180.66 173.91 176.51 173.91C172.36 173.91 169.74 171.52 169.74 166.91" fill="#939598"/>
<path d="M187.03 157.76H189.62L198.14 168.77V157.76H200.88V173.69H198.54L189.78 162.36V173.69H187.03V157.76Z" fill="#939598"/>
<path d="M207.76 157.76H204.97V173.68H207.76V157.76Z" fill="#939598"/>
<path d="M210.48 157.76H213.57L218.36 170L223.13 157.76H226.15L219.56 173.8H217.09L210.48 157.76Z" fill="#939598"/>
<path d="M228.71 157.76H240.49V160.26H231.5V164.4H239.47V166.91H231.5V171.18H240.6V173.69H228.71V157.76Z" fill="#939598"/>
<path d="M250.64 165.66C252.64 165.66 253.91 164.66 253.91 163C253.91 161.29 252.68 160.36 250.62 160.36H246.55V165.71L250.64 165.66ZM243.76 157.76H250.84C252.521 157.667 254.171 158.242 255.43 159.36C255.865 159.817 256.205 160.355 256.431 160.944C256.658 161.532 256.766 162.16 256.75 162.79V162.84C256.783 163.957 256.423 165.05 255.735 165.93C255.047 166.811 254.072 167.423 252.98 167.66L257.27 173.66H254L250.1 168.1H246.6V173.66H243.81L243.76 157.76Z" fill="#939598"/>
<path d="M258.94 171.37L260.62 169.37C261.964 170.668 263.751 171.408 265.62 171.44C267.35 171.44 268.44 170.63 268.44 169.44C268.44 168.3 267.8 167.68 264.85 167C261.47 166.18 259.56 165.18 259.56 162.25C259.56 159.52 261.83 157.64 264.99 157.64C267.087 157.596 269.131 158.306 270.75 159.64L269.25 161.75C268.063 160.717 266.57 160.103 265 160C263.36 160 262.41 160.84 262.41 161.88C262.41 163.11 263.14 163.65 266.2 164.38C269.56 165.2 271.29 166.38 271.29 169.04C271.29 172.04 268.95 173.79 265.61 173.79C263.16 173.801 260.795 172.895 258.98 171.25" fill="#939598"/>
<path d="M277.33 157.76H274.54V173.68H277.33V157.76Z" fill="#939598"/>
<path d="M285.32 160.36H280.28V157.76H293.18V160.36H288.13V173.69H285.32V160.36Z" fill="#939598"/>
<path d="M303.32 153.14L305.82 154.24L302.91 156.44H300.78L303.32 153.14ZM296 157.76H307.78V160.27H298.78V164.4H306.78V166.91H298.78V171.18H307.88V173.69H296V157.76Z" fill="#939598"/>
<path d="M316.6 171.37L318.28 169.37C319.623 170.67 321.411 171.41 323.28 171.44C325 171.44 326.09 170.63 326.09 169.44C326.09 168.3 325.46 167.68 322.51 167C319.12 166.18 317.22 165.18 317.22 162.25C317.22 159.52 319.49 157.64 322.64 157.64C324.741 157.595 326.788 158.304 328.41 159.64L326.91 161.75C325.691 160.749 324.177 160.176 322.6 160.12C320.96 160.12 320.01 160.96 320.01 162C320.01 163.23 320.73 163.77 323.8 164.5C327.16 165.32 328.89 166.5 328.89 169.16C328.89 172.16 326.55 173.91 323.21 173.91C320.76 173.921 318.395 173.015 316.58 171.37" fill="#939598"/>
<path d="M341.32 167.36L338.57 161L335.85 167.37L341.32 167.36ZM337.32 157.65H339.9L346.9 173.65H343.9L342.29 169.8H334.78L333.14 173.65H330.28L337.32 157.65Z" fill="#939598"/>
<path d="M345.84 157.76H348.92L353.72 170L358.48 157.76H361.5L354.92 173.8H352.44L345.84 157.76Z" fill="#939598"/>
<path d="M376.05 165.77V165.72C376.079 164.991 375.962 164.263 375.704 163.58C375.447 162.897 375.054 162.273 374.55 161.745C374.046 161.217 373.441 160.795 372.771 160.506C372.101 160.216 371.38 160.065 370.65 160.06C369.924 160.062 369.207 160.211 368.54 160.497C367.874 160.784 367.272 161.202 366.771 161.727C366.271 162.252 365.881 162.873 365.627 163.552C365.372 164.231 365.258 164.955 365.29 165.68V165.68C365.262 166.409 365.38 167.135 365.639 167.817C365.897 168.499 366.289 169.122 366.793 169.649C367.297 170.176 367.901 170.596 368.571 170.885C369.24 171.174 369.961 171.325 370.69 171.33C371.414 171.331 372.132 171.185 372.798 170.9C373.465 170.616 374.066 170.2 374.567 169.676C375.068 169.153 375.458 168.533 375.713 167.855C375.968 167.177 376.082 166.454 376.05 165.73V165.77ZM362.36 165.73V165.68C362.36 163.476 363.235 161.362 364.794 159.804C366.352 158.246 368.466 157.37 370.67 157.37C372.874 157.37 374.988 158.246 376.546 159.804C378.104 161.362 378.98 163.476 378.98 165.68C378.987 167.884 378.117 170 376.564 171.563C375.01 173.127 372.899 174.008 370.695 174.015C368.491 174.022 366.375 173.152 364.811 171.599C363.248 170.045 362.366 167.934 362.36 165.73" fill="#939598"/>
<path d="M385.15 157.76H382.36V173.68H385.15V157.76Z" fill="#939598"/>
<path d="M389.24 157.76H401.02V160.26H392.03V164.4H400V166.91H392.03V171.18H401.13V173.69H389.24V157.76Z" fill="#939598"/>
<path d="M169.72 185.8H172.7L177.54 193.33L182.37 185.8H185.35V201.73H182.55V190.31L177.54 197.81H177.44L172.47 190.35V201.73H169.72V185.8Z" fill="#939598"/>
<path d="M202.25 193.81C202.28 193.08 202.162 192.352 201.905 191.668C201.647 190.985 201.255 190.36 200.751 189.831C200.247 189.302 199.642 188.88 198.972 188.589C198.302 188.299 197.58 188.146 196.85 188.14C196.125 188.142 195.407 188.291 194.74 188.577C194.074 188.864 193.472 189.282 192.971 189.807C192.471 190.332 192.081 190.953 191.827 191.632C191.572 192.311 191.458 193.035 191.49 193.76V193.81C191.463 194.539 191.583 195.265 191.843 195.946C192.102 196.628 192.496 197.25 193.001 197.776C193.505 198.302 194.11 198.721 194.78 199.009C195.45 199.296 196.171 199.446 196.9 199.45C197.624 199.451 198.341 199.305 199.007 199.02C199.673 198.736 200.274 198.319 200.774 197.796C201.274 197.272 201.663 196.652 201.917 195.974C202.171 195.296 202.284 194.573 202.25 193.85V193.81ZM188.57 193.85C188.638 191.697 189.539 189.654 191.084 188.153C192.629 186.651 194.697 185.809 196.851 185.802C199.005 185.796 201.078 186.626 202.632 188.118C204.185 189.61 205.099 191.647 205.18 193.8V193.85C205.105 196.003 204.198 198.042 202.648 199.539C201.099 201.035 199.029 201.872 196.875 201.872C194.721 201.872 192.651 201.035 191.102 199.539C189.552 198.042 188.645 196.003 188.57 193.85" fill="#939598"/>
<path d="M208.41 185.8H211L219.51 196.81V185.8H222.25V201.73H219.92L211.15 190.4V201.73H208.41V185.8Z" fill="#939598"/>
<path d="M230.09 188.4H225.05V185.8H237.94V188.4H232.9V201.73H230.09V188.4Z" fill="#939598"/>
<path d="M254.55 194.88H250.13V199.25H254.76C256.66 199.25 257.82 198.5 257.82 197.07C257.82 195.73 256.76 194.93 254.55 194.93V194.88ZM256.94 190.36C256.94 189.11 255.94 188.36 254.15 188.36H250.15V192.59H253.96C255.75 192.59 256.96 191.89 256.96 190.43L256.94 190.36ZM247.38 185.85H254.51C256.025 185.755 257.516 186.261 258.66 187.26C259.01 187.603 259.286 188.014 259.47 188.468C259.655 188.923 259.743 189.41 259.73 189.9V189.95C259.744 190.7 259.536 191.437 259.132 192.068C258.728 192.7 258.146 193.198 257.46 193.5C259.32 194.13 260.61 195.21 260.61 197.36V197.41C260.61 200.25 258.28 201.78 254.74 201.78H247.38V185.85Z" fill="#939598"/>
<path d="M263.61 185.8H266.4V199.18H274.76V201.73H263.61V185.8Z" fill="#939598"/>
<path d="M287.13 195.4L284.38 189L281.65 195.37L287.13 195.4ZM283.13 185.69H285.72L292.72 201.69H289.77L288.16 197.84H280.64L279 201.73H276.14L283.13 185.69Z" fill="#939598"/>
<path d="M295.27 185.8H297.86L306.38 196.81V185.8H309.12V201.73H306.78L298.02 190.4V201.73H295.27V185.8Z" fill="#939598"/>
<path d="M312.34 193.81C312.316 192.725 312.511 191.645 312.914 190.637C313.317 189.629 313.919 188.713 314.685 187.943C315.451 187.174 316.364 186.567 317.37 186.159C318.376 185.751 319.454 185.551 320.54 185.57C321.692 185.526 322.841 185.724 323.912 186.151C324.984 186.579 325.954 187.225 326.76 188.05L325 190.08C324.426 189.47 323.738 188.98 322.974 188.636C322.211 188.293 321.387 188.104 320.55 188.08C319.833 188.094 319.127 188.251 318.472 188.544C317.818 188.836 317.229 189.256 316.74 189.781C316.251 190.305 315.873 190.922 315.627 191.595C315.382 192.268 315.274 192.984 315.31 193.7V193.75C315.271 194.467 315.377 195.185 315.621 195.861C315.866 196.537 316.244 197.156 316.733 197.682C317.222 198.209 317.812 198.631 318.467 198.925C319.123 199.218 319.832 199.376 320.55 199.39C321.407 199.389 322.254 199.211 323.039 198.867C323.824 198.523 324.529 198.02 325.11 197.39L326.9 199.21C326.104 200.13 325.113 200.86 323.999 201.348C322.885 201.836 321.676 202.069 320.46 202.03C319.386 202.042 318.32 201.838 317.326 201.43C316.332 201.021 315.431 200.417 314.676 199.653C313.921 198.888 313.328 197.98 312.932 196.981C312.535 195.982 312.344 194.914 312.37 193.84" fill="#939598"/>
</g>
<defs>
<clipPath id="clip0_301_2">
<rect width="401.13" height="202" fill="white"/>
</clipPath>
</defs>
</svg>
