<svg width="121" height="40" viewBox="0 0 121 40" fill="none" xmlns="http://www.w3.org/2000/svg">
<path d="M62.004 29.196C60.1747 29.196 58.4947 28.7667 56.964 27.908C55.4333 27.0493 54.22 25.864 53.324 24.352C52.428 22.8213 51.98 21.0947 51.98 19.172C51.98 17.268 52.428 15.56 53.324 14.048C54.22 12.5173 55.4333 11.3227 56.964 10.464C58.4947 9.60533 60.1747 9.176 62.004 9.176C63.852 9.176 65.532 9.60533 67.044 10.464C68.5747 11.3227 69.7787 12.5173 70.656 14.048C71.552 15.56 72 17.268 72 19.172C72 21.0947 71.552 22.8213 70.656 24.352C69.7787 25.864 68.5747 27.0493 67.044 27.908C65.5133 28.7667 63.8333 29.196 62.004 29.196ZM62.004 25.696C63.18 25.696 64.216 25.4347 65.112 24.912C66.008 24.3707 66.708 23.6053 67.212 22.616C67.716 21.6267 67.968 20.4787 67.968 19.172C67.968 17.8653 67.716 16.7267 67.212 15.756C66.708 14.7667 66.008 14.0107 65.112 13.488C64.216 12.9653 63.18 12.704 62.004 12.704C60.828 12.704 59.7827 12.9653 58.868 13.488C57.972 14.0107 57.272 14.7667 56.768 15.756C56.264 16.7267 56.012 17.8653 56.012 19.172C56.012 20.4787 56.264 21.6267 56.768 22.616C57.272 23.6053 57.972 24.3707 58.868 24.912C59.7827 25.4347 60.828 25.696 62.004 25.696ZM78.8364 8.28V29H74.9164V8.28H78.8364ZM86.6293 8.28V29H82.7093V8.28H86.6293ZM92.4903 11.64C91.7996 11.64 91.221 11.4253 90.7543 10.996C90.3063 10.548 90.0823 9.99733 90.0823 9.344C90.0823 8.69067 90.3063 8.14933 90.7543 7.72C91.221 7.272 91.7996 7.048 92.4903 7.048C93.181 7.048 93.7503 7.272 94.1983 7.72C94.665 8.14933 94.8983 8.69067 94.8983 9.344C94.8983 9.99733 94.665 10.548 94.1983 10.996C93.7503 11.4253 93.181 11.64 92.4903 11.64ZM94.4223 13.488V29H90.5023V13.488H94.4223ZM112.715 20.908C112.715 21.468 112.678 21.972 112.603 22.42H101.263C101.357 23.54 101.749 24.4173 102.439 25.052C103.13 25.6867 103.979 26.004 104.987 26.004C106.443 26.004 107.479 25.3787 108.095 24.128H112.323C111.875 25.6213 111.017 26.8533 109.747 27.824C108.478 28.776 106.919 29.252 105.071 29.252C103.578 29.252 102.234 28.9253 101.039 28.272C99.8633 27.6 98.9393 26.6573 98.2673 25.444C97.6139 24.2307 97.2873 22.8307 97.2873 21.244C97.2873 19.6387 97.6139 18.2293 98.2673 17.016C98.9206 15.8027 99.8353 14.8693 101.011 14.216C102.187 13.5627 103.541 13.236 105.071 13.236C106.546 13.236 107.862 13.5533 109.019 14.188C110.195 14.8227 111.101 15.728 111.735 16.904C112.389 18.0613 112.715 19.396 112.715 20.908ZM108.655 19.788C108.637 18.78 108.273 17.9773 107.563 17.38C106.854 16.764 105.986 16.456 104.959 16.456C103.989 16.456 103.167 16.7547 102.495 17.352C101.842 17.9307 101.441 18.7427 101.291 19.788H108.655Z" fill="black"/>
<path d="M117.313 29.196C116.603 29.196 116.015 28.9813 115.549 28.552C115.101 28.104 114.877 27.5533 114.877 26.9C114.877 26.2467 115.101 25.7053 115.549 25.276C116.015 24.828 116.603 24.604 117.313 24.604C118.003 24.604 118.573 24.828 119.021 25.276C119.469 25.7053 119.693 26.2467 119.693 26.9C119.693 27.5533 119.469 28.104 119.021 28.552C118.573 28.9813 118.003 29.196 117.313 29.196Z" fill="#5956E9"/>
<rect width="40" height="40" rx="11.4286" fill="#FAB8C4"/>
<circle cx="12.8572" cy="12.8571" r="5.71429" fill="#5956E9"/>
<circle cx="12.8571" cy="27.1429" r="5.71429" fill="white"/>
<circle cx="27.1428" cy="12.8572" r="5.71429" fill="white"/>
<circle cx="27.1428" cy="27.1429" r="5.71429" fill="#5956E9"/>
</svg>
